<?xml version="1.0" encoding="UTF-8"?>
<svg width="727px" height="265px" viewBox="0 0 727 265" version="1.1" xmlns="http://www.w3.org/2000/svg" xmlns:xlink="http://www.w3.org/1999/xlink">
    <title>background-highlight2</title>
    <g id="Page-1" stroke="none" stroke-width="1" fill="none" fill-rule="evenodd" opacity="0.7">
        <g id="Desktop-HD-Copy-4" transform="translate(-446.000000, -545.000000)" fill="#111E2B" fill-rule="nonzero">
            <g id="Background">
                <path d="M1173,810 L1033.87897,810 L1029.38007,803.740654 C1024.96364,797.623736 1020.45724,791.521811 1015.81588,785.502344 L1015.81588,785.502344 C1003.63135,769.655328 990.569541,754.408011 975.955609,741.094719 C964.715578,730.699314 952.266875,721.691762 938.877162,714.265737 C911.666306,699.430712 876.754829,693.111396 850.256299,709.190794 C823.757769,725.270192 812.405541,759.363014 786.364399,776.349455 C731.627763,812.061461 649.84523,753.470983 595.963386,790.464843 C588.45131,795.741254 581.983447,802.365026 576.888043,810 L446,810 C452.131109,787.372791 463.273311,766.41357 478.60204,748.6734 C502.003826,721.806937 534.988273,703.643589 570.079705,697.474198 C579.594082,695.785461 589.248141,695.009822 598.910166,695.157865 L599.465031,695.157865 L600.589756,695.157865 C604.63127,695.270308 608.702775,695.52518 612.804274,695.907487 L612.804274,695.907487 C641.057376,698.418722 670.405211,705.937434 697.353631,704.363227 C711.562662,703.538642 725.096857,700.172838 737.45384,692.219346 C762.76766,675.922557 773.010159,646.282492 785.314655,617.92428 C785.314655,617.92428 785.314655,617.92428 785.314655,617.92428 C785.464618,617.58695 785.607084,617.272109 785.749549,616.942275 C790.8633,605.218183 796.366956,593.703984 803.475221,583.554098 C806.702661,578.869872 810.343864,574.484502 814.355065,570.450701 C847.639438,537.272418 904.445569,538.779159 945.288097,562.032442 C969.574667,575.855477 989.362336,595.630514 1006.62312,617.789348 C1016.69316,630.712837 1025.90841,644.453413 1034.64378,658.268952 C1034.86873,658.621275 1035.09367,658.973597 1035.31112,659.32592 L1035.31112,659.32592 C1036.56081,661.324912 1037.81051,663.303915 1039.0602,665.262928 C1042.3294,670.530274 1045.57861,675.827605 1048.80782,681.154921 C1052.68438,687.474237 1056.57593,693.801049 1060.52746,700.075387 C1065.43876,707.878955 1070.45504,715.607561 1075.66626,723.163754 C1082.21966,732.676461 1089.09549,741.904311 1096.47368,750.704877 C1102.4561,757.859994 1108.84509,764.665301 1115.60901,771.087107 C1118.00843,773.365959 1120.47033,775.587339 1122.99471,777.751249 C1128.68759,782.639223 1134.64245,787.213692 1140.83285,791.454345 C1151.05918,798.458888 1161.81385,804.659392 1173,810 L1173,810 Z" id="background-highlight2"></path>
            </g>
        </g>
    </g>
</svg>