<?xml version="1.0" encoding="UTF-8"?>
<svg width="1020px" height="263px" viewBox="0 0 1020 263" version="1.1" xmlns="http://www.w3.org/2000/svg" xmlns:xlink="http://www.w3.org/1999/xlink">
    <title>background-highlight1</title>
    <g id="Page-1" stroke="none" stroke-width="1" fill="none" fill-rule="evenodd" opacity="0.8">
        <g id="Desktop-HD-Copy-4" transform="translate(-420.000000, 0.000000)" fill="#111E2B" fill-rule="nonzero">
            <g id="Background">
                <path d="M1440,89.2622344 L1440,189.40096 C1412.15782,193.05396 1386.05531,206.885856 1360.95011,220.155175 L1356.36849,222.578007 L1356.36849,222.578007 C1349.42482,226.223506 1342.38366,229.824 1335.23003,233.154456 L1335.23003,233.154456 L1335.23003,233.154456 C1321.43267,239.582838 1307.25288,245.013582 1292.65317,247.833968 L1292.65317,247.833968 C1290.80852,248.186517 1288.97137,248.50156 1287.11923,248.771597 L1287.11923,248.771597 C1285.44705,249.01163 1283.76737,249.221659 1282.08769,249.386681 C1277.54192,249.85249 1272.96987,250.010371 1268.40281,249.859246 C1263.74947,249.701085 1259.11222,249.227434 1254.52296,248.441552 C1201.03568,239.327803 1159.75608,190.376093 1108.06096,169.478229 C1061.67483,150.725659 1009.23735,155.796354 961.021569,170.640888 L960.931587,170.640888 L960.931587,170.640888 C959.559349,171.053445 958.209607,171.488504 956.852366,171.923564 C954.082896,172.808685 951.333422,173.728811 948.603943,174.683942 C947.10423,175.201513 945.604517,175.741587 944.059812,176.281661 L944.059812,176.281661 C939.000779,178.106912 933.97424,180.014673 928.980195,182.004946 C911.823475,188.808378 895.011689,196.459427 878.26739,204.275498 L878.26739,204.275498 L876.955141,204.890583 C848.273124,218.309922 819.771073,232.15682 790.07675,243.063315 C770.190552,250.369316 749.344537,256.272625 728.288562,259.708096 C693.697675,265.35637 658.551894,264.343731 626.030612,251.884524 C613.679472,247.181299 601.925605,241.038077 591.012306,233.582015 C547.153191,203.577903 516.146619,154.60369 489.399232,107.309708 C468.538221,70.4421549 447.369768,31.8643674 420,0 L515.764192,0 C546.403335,22.0980288 576.735036,44.6611213 608.956376,64.328817 C653.152927,91.287512 702.688457,112.94298 753.678708,117.841151 C754.638525,117.938665 755.590843,118.028677 756.550659,118.103687 L756.550659,118.103687 C770.084446,119.264706 783.697806,119.139126 797.207887,117.728636 C807.787196,116.574593 818.271455,114.672068 828.581889,112.035356 L828.581889,112.035356 C829.581698,111.785321 830.56401,111.535287 831.528825,111.285253 L831.581315,111.285253 C833.645921,110.740178 835.703027,110.1676 837.752636,109.567517 C839.447312,109.067449 841.136989,108.56738 842.821666,108.067312 L842.821666,108.067312 C844.921265,107.414722 847.005867,106.73963 849.090468,106.034533 C853.589608,104.534328 858.051255,102.926607 862.475409,101.211372 C881.221825,94.0328883 899.55582,85.2491844 917.76234,75.9929157 C978.943143,44.8936532 1038.48926,8.48366278 1105.86388,9.75883756 C1141.65454,10.4339301 1176.04296,22.158037 1206.98955,40.4680466 C1206.98955,40.4680466 1206.98955,40.4680466 1206.98955,40.4680466 C1207.81439,40.9556134 1208.63923,41.4506813 1209.45657,41.9682522 C1228.73304,53.7646282 1246.59597,67.7299696 1262.6964,83.5914571 C1288.46147,108.817415 1316.98602,140.599271 1352.67919,135.783611 C1383.82074,131.560532 1404.65176,100.416263 1434.57104,90.8149472 C1436.37569,90.1898615 1438.18535,89.6722906 1440,89.2622344 Z" id="background-highlight1"></path>
            </g>
        </g>
    </g>
</svg>