<?xml version="1.0" encoding="UTF-8"?>
<svg width="1440px" height="810px" viewBox="0 0 1440 810" version="1.1" xmlns="http://www.w3.org/2000/svg" xmlns:xlink="http://www.w3.org/1999/xlink">
    <title>Background</title>
    <g id="Page-1" stroke="none" stroke-width="1" fill="none" fill-rule="evenodd">
        <g id="Desktop-HD-Copy-4" fill-rule="nonzero">
            <g id="Background">
                <rect id="Rectangle" fill="#1A2C42" x="0" y="0" width="1440" height="810"></rect>
                <path d="M1440,89.2622344 L1440,189.40096 C1412.15782,193.05396 1386.05531,206.885856 1360.95011,220.155175 L1356.36849,222.578007 L1356.36849,222.578007 C1349.42482,226.223506 1342.38366,229.824 1335.23003,233.154456 L1335.23003,233.154456 L1335.23003,233.154456 C1321.43267,239.582838 1307.25288,245.013582 1292.65317,247.833968 L1292.65317,247.833968 C1290.80852,248.186517 1288.97137,248.50156 1287.11923,248.771597 L1287.11923,248.771597 C1285.44705,249.01163 1283.76737,249.221659 1282.08769,249.386681 C1277.54192,249.85249 1272.96987,250.010371 1268.40281,249.859246 C1263.74947,249.701085 1259.11222,249.227434 1254.52296,248.441552 C1201.03568,239.327803 1159.75608,190.376093 1108.06096,169.478229 C1061.67483,150.725659 1009.23735,155.796354 961.021569,170.640888 L960.931587,170.640888 L960.931587,170.640888 C959.559349,171.053445 958.209607,171.488504 956.852366,171.923564 C954.082896,172.808685 951.333422,173.728811 948.603943,174.683942 C947.10423,175.201513 945.604517,175.741587 944.059812,176.281661 L944.059812,176.281661 C939.000779,178.106912 933.97424,180.014673 928.980195,182.004946 C911.823475,188.808378 895.011689,196.459427 878.26739,204.275498 L878.26739,204.275498 L876.955141,204.890583 C848.273124,218.309922 819.771073,232.15682 790.07675,243.063315 C770.190552,250.369316 749.344537,256.272625 728.288562,259.708096 C693.697675,265.35637 658.551894,264.343731 626.030612,251.884524 C613.679472,247.181299 601.925605,241.038077 591.012306,233.582015 C547.153191,203.577903 516.146619,154.60369 489.399232,107.309708 C468.538221,70.4421549 447.369768,31.8643674 420,0 L515.764192,0 C546.403335,22.0980288 576.735036,44.6611213 608.956376,64.328817 C653.152927,91.287512 702.688457,112.94298 753.678708,117.841151 C754.638525,117.938665 755.590843,118.028677 756.550659,118.103687 L756.550659,118.103687 C770.084446,119.264706 783.697806,119.139126 797.207887,117.728636 C807.787196,116.574593 818.271455,114.672068 828.581889,112.035356 L828.581889,112.035356 C829.581698,111.785321 830.56401,111.535287 831.528825,111.285253 L831.581315,111.285253 C833.645921,110.740178 835.703027,110.1676 837.752636,109.567517 C839.447312,109.067449 841.136989,108.56738 842.821666,108.067312 L842.821666,108.067312 C844.921265,107.414722 847.005867,106.73963 849.090468,106.034533 C853.589608,104.534328 858.051255,102.926607 862.475409,101.211372 C881.221825,94.0328883 899.55582,85.2491844 917.76234,75.9929157 C978.943143,44.8936532 1038.48926,8.48366278 1105.86388,9.75883756 C1141.65454,10.4339301 1176.04296,22.158037 1206.98955,40.4680466 C1206.98955,40.4680466 1206.98955,40.4680466 1206.98955,40.4680466 C1207.81439,40.9556134 1208.63923,41.4506813 1209.45657,41.9682522 C1228.73304,53.7646282 1246.59597,67.7299696 1262.6964,83.5914571 C1288.46147,108.817415 1316.98602,140.599271 1352.67919,135.783611 C1383.82074,131.560532 1404.65176,100.416263 1434.57104,90.8149472 C1436.37569,90.1898615 1438.18535,89.6722906 1440,89.2622344 Z" id="background-highlight1" fill="#111E2B" opacity="0.8"></path>
                <circle id="star-white2" fill="#FFFFFF" cx="625.5" cy="169.5" r="5.5"></circle>
                <circle id="star-white1" fill="#FFFFFF" cx="458.5" cy="164.5" r="5.5"></circle>
                <circle id="star-white8" fill="#FFFFFF" cx="269.5" cy="793.5" r="5.5"></circle>
                <circle id="star-white7" fill="#FFFFFF" cx="495.5" cy="710.5" r="5.5"></circle>
                <circle id="star-white5" fill="#FFFFFF" cx="1246.5" cy="344.5" r="5.5"></circle>
                <circle id="star-white4" fill="#FFFFFF" cx="1401.5" cy="70.5" r="5.5"></circle>
                <circle id="star-white3" fill="#FFFFFF" cx="993.5" cy="98.5" r="5.5"></circle>
                <circle id="star-blue10" fill="#129DD7" cx="533.5" cy="638.5" r="3.5"></circle>
                <circle id="star-blue8" fill="#129DD7" cx="1095.5" cy="302.5" r="3.5"></circle>
                <circle id="star-blue7" fill="#129DD7" cx="1179.5" cy="130.5" r="3.5"></circle>
                <circle id="star-blue6" fill="#129DD7" cx="1209.5" cy="38.5" r="3.5"></circle>
                <circle id="star-blue5" fill="#129DD7" cx="924.5" cy="267.5" r="3.5"></circle>
                <circle id="star-blue3" fill="#129DD7" cx="755.5" cy="115.5" r="3.5"></circle>
                <circle id="star-blue4" fill="#129DD7" cx="777.5" cy="210.5" r="3.5"></circle>
                <circle id="star-blue2" fill="#129DD7" cx="838.5" cy="38.5" r="3.5"></circle>
                <circle id="star-blue1" fill="#129DD7" cx="386.5" cy="70.5" r="3.5"></circle>
                <path d="M1173,810 L1033.87897,810 L1029.38007,803.740654 C1024.96364,797.623736 1020.45724,791.521811 1015.81588,785.502344 L1015.81588,785.502344 C1003.63135,769.655328 990.569541,754.408011 975.955609,741.094719 C964.715578,730.699314 952.266875,721.691762 938.877162,714.265737 C911.666306,699.430712 876.754829,693.111396 850.256299,709.190794 C823.757769,725.270192 812.405541,759.363014 786.364399,776.349455 C731.627763,812.061461 649.84523,753.470983 595.963386,790.464843 C588.45131,795.741254 581.983447,802.365026 576.888043,810 L446,810 C452.131109,787.372791 463.273311,766.41357 478.60204,748.6734 C502.003826,721.806937 534.988273,703.643589 570.079705,697.474198 C579.594082,695.785461 589.248141,695.009822 598.910166,695.157865 L599.465031,695.157865 L600.589756,695.157865 C604.63127,695.270308 608.702775,695.52518 612.804274,695.907487 L612.804274,695.907487 C641.057376,698.418722 670.405211,705.937434 697.353631,704.363227 C711.562662,703.538642 725.096857,700.172838 737.45384,692.219346 C762.76766,675.922557 773.010159,646.282492 785.314655,617.92428 C785.314655,617.92428 785.314655,617.92428 785.314655,617.92428 C785.464618,617.58695 785.607084,617.272109 785.749549,616.942275 C790.8633,605.218183 796.366956,593.703984 803.475221,583.554098 C806.702661,578.869872 810.343864,574.484502 814.355065,570.450701 C847.639438,537.272418 904.445569,538.779159 945.288097,562.032442 C969.574667,575.855477 989.362336,595.630514 1006.62312,617.789348 C1016.69316,630.712837 1025.90841,644.453413 1034.64378,658.268952 C1034.86873,658.621275 1035.09367,658.973597 1035.31112,659.32592 L1035.31112,659.32592 C1036.56081,661.324912 1037.81051,663.303915 1039.0602,665.262928 C1042.3294,670.530274 1045.57861,675.827605 1048.80782,681.154921 C1052.68438,687.474237 1056.57593,693.801049 1060.52746,700.075387 C1065.43876,707.878955 1070.45504,715.607561 1075.66626,723.163754 C1082.21966,732.676461 1089.09549,741.904311 1096.47368,750.704877 C1102.4561,757.859994 1108.84509,764.665301 1115.60901,771.087107 C1118.00843,773.365959 1120.47033,775.587339 1122.99471,777.751249 C1128.68759,782.639223 1134.64245,787.213692 1140.83285,791.454345 C1151.05918,798.458888 1161.81385,804.659392 1173,810 L1173,810 Z" id="background-highlight2" fill="#111E2B" opacity="0.7"></path>
                <circle id="star-white6" fill="#FFFFFF" cx="895.5" cy="630.5" r="5.5"></circle>
                <circle id="Oval" fill="#129DD7" cx="684.5" cy="730.5" r="3.5"></circle>
                <circle id="star-blue9" fill="#129DD7" cx="588.5" cy="770.5" r="3.5"></circle>
                <circle id="star-white5" fill="#FFFFFF" cx="1406.5" cy="523.5" r="5.5"></circle>
                <circle id="star-blue11" fill="#129DD7" cx="997.5" cy="603.5" r="3.5"></circle>
                <circle id="star-blue12" fill="#129DD7" cx="1227.5" cy="420.5" r="3.5"></circle>
                <circle id="star-blue13" fill="#129DD7" cx="1027.5" cy="495.5" r="3.5"></circle>
            </g>
        </g>
    </g>
</svg>