<?xml version="1.0" encoding="UTF-8"?>
<svg width="367px" height="148px" viewBox="0 0 367 148" version="1.1" xmlns="http://www.w3.org/2000/svg" xmlns:xlink="http://www.w3.org/1999/xlink">
    <title>Person</title>
    <defs>
        <linearGradient x1="97.9221026%" y1="44.8206719%" x2="-4.96663017%" y2="42.5334139%" id="linearGradient-1">
            <stop stop-color="#255D8D" offset="0%"></stop>
            <stop stop-color="#FFFFFF" stop-opacity="0.1" offset="100%"></stop>
        </linearGradient>
    </defs>
    <g id="Page-1" stroke="none" stroke-width="1" fill="none" fill-rule="evenodd">
        <g id="Desktop-HD-Copy-4" transform="translate(-800.000000, -327.000000)">
            <g id="Person" transform="translate(800.000000, 327.000000)">
                <path d="M342.196853,63.4661415 C344.094697,68.480691 342.550844,74.1678801 338.392254,77.4813868 C334.908435,80.1296383 330.313075,80.5925133 325.978816,80.9567427 L314.303918,81.9356093 C313.110318,82.0342548 311.812278,82.1101359 310.820098,81.4423819 C309.960747,80.7407539 309.358918,79.7650322 309.111759,78.6727206 C307.855599,74.6568753 307.66007,70.3755749 308.544799,66.2585672 L337.556734,62.160986 C338.659982,61.9129159 339.806937,61.9520653 340.891354,62.2748077 C341.943214,62.6845658 342.786193,63.906252 342.196853,63.4661415 Z" id="right-ankle" fill="#FDC3BA" fill-rule="nonzero"></path>
                <path d="M280.129381,102.813867 C283.60517,107.366949 287.751299,111.361352 292.425001,114.659533 C293.9601,115.732348 295.695429,116.961615 295.962403,118.816691 C296.348031,121.431677 293.693126,123.368704 291.394186,124.642672 C288.561299,126.207194 285.216713,127.808966 282.250338,126.542449 C278.675858,125.007727 277.860105,120.358862 275.44251,117.31177 C273.722013,115.128889 271.096772,113.698469 269.776736,111.247385 C268.197125,108.110394 269.088434,104.286812 271.890277,102.180608 C274.626757,100.228681 278.646194,100.87684 280.129381,102.813867 Z" id="left-ankle" fill="#FDC3BA" fill-rule="nonzero"></path>
                <path d="M162.16361,91.1263513 C177.960131,73.9014356 194.775298,55.9965891 216.930873,48.8195409 C221.889287,47.2103711 227.312085,46.1980296 232.2705,47.8298637 C236.899352,49.3408212 240.509557,52.9595645 243.925021,56.4498763 L291,104.49077 C289.407939,113.660586 282.501742,120.963291 273.495748,123 C263.391667,113.934255 253.272607,104.808072 242.501911,96.5204696 C237.723258,93.2416918 231.266833,94.586444 225.791605,96.3693738 C211.433174,101.030678 197.85371,107.837541 184.596317,115.044809 C178.948818,118.104498 173.069127,121.322837 166.620192,121.526816 C160.171257,121.730796 153.138097,117.824971 152.13443,111.441175 C151.482796,107.429583 153.287899,103.402881 155.654755,100.108994 C158.021612,96.8151063 160.073886,93.3927875 162.16361,91.1263513 Z" id="left-leg" fill="#01052B" fill-rule="nonzero"></path>
                <g id="right-shoe" transform="translate(330.000000, 51.000000)" fill-rule="nonzero">
                    <path d="M7.031953,17.8865979 C6.4008803,16.5323357 4.87578792,15.9202398 3.68125745,15.040352 C2.48672697,14.1604641 1.56265622,12.3318276 2.5543419,11.2147525 C3.17451726,10.6996106 3.95556652,10.4281291 4.7555836,10.4496326 C12.3821048,9.56292749 19.6872232,6.82059656 26.0542874,2.45412983 C27.2245955,1.53104304 28.5235765,0.790932302 29.9083386,0.258235762 C31.3272892,-0.26903343 32.9151262,0.0233886518 34.0629005,1.02335565 C35.4677886,2.46943223 35.1222012,4.91781587 34.145541,6.6852428 C31.7940439,10.9469606 26.9032304,12.9286211 23.3271518,16.1880318 C20.8103737,18.4833914 18.9547195,21.4061494 16.9262715,24.1529298 C14.8978235,26.8997102 12.5613519,29.5623274 9.48862889,31.0390088 C6.41590584,32.5156902 2.45667589,32.3779686 0,30.0137481 C4.39497063,27.4658989 8.90263281,21.8575701 7.031953,17.8865979 Z" id="Path" fill="#000000"></path>
                    <path d="M32.3751666,0.134432327 C34.1735944,-0.451728855 36.1735058,0.961069891 36.7555695,2.77967253 C37.3376333,4.59827517 36.807806,6.58972022 35.927248,8.27305489 C32.5393384,14.7584023 24.7337141,17.5539403 20.1667522,23.2427097 C18.674281,25.0913719 17.56239,27.21057 16.0997682,29.0667471 C14.6371464,30.9229242 12.7043962,32.5837142 10.3761412,32.9669734 C9.32394899,33.1398158 7.86132722,32.6288035 8.01057434,31.5616895 C8.09695395,31.2028438 8.28034214,30.8751034 8.54040161,30.6148138 C15.597529,22.0881329 23.1160667,13.959722 31.0617919,6.26658008 C31.9462222,5.53424623 32.6467349,4.6022364 33.1064775,3.546191 C33.4516048,2.35758336 33.1764339,1.07383834 32.3751666,0.134432327 L32.3751666,0.134432327 Z" id="Path" fill="#FFFFFF"></path>
                </g>
                <path d="M150,139.23474 C176.30921,142.980676 204.230263,132.776747 221.817439,112.960747 C228.731797,105.184184 234.410911,95.8268368 243.547204,90.799791 C251.410592,86.4844731 260.750249,85.9975014 269.720838,85.615416 L318.987526,83.4952164 C320.426134,83.4352814 322.000318,83.3378871 323.092455,82.4388625 C324.380424,81.3974924 324.726895,79.6069351 324.870003,77.9437396 C325.318457,72.7529882 324.603304,67.5279305 322.776112,62.6453381 C299.173554,60.0381551 275.396075,59.3566175 251.681744,60.6075491 C242.748814,61.079537 233.672777,61.8586916 225.380066,65.1775907 C216.658032,68.6688028 209.299286,74.7447105 201.699518,80.2362523 C190.778145,88.1177011 179.028255,94.9802553 169.206552,104.210241 C159.384848,113.440227 151.431076,125.547091 150,139.23474 Z" id="right-leg" fill="#01063A" fill-rule="nonzero"></path>
                <g id="left-shoe" transform="translate(279.000000, 115.000000)" fill-rule="nonzero">
                    <path d="M44.557567,8.12025785 C45.9409962,7.92578665 47.3457183,7.96740372 48.7162287,8.24346464 C50.1069547,8.53667959 51.2721321,9.51704567 51.8370782,10.8693094 C52.2381862,12.3140932 51.8872138,13.8715934 50.9104602,14.981336 C49.9309307,16.0609874 48.7155504,16.8797725 47.3670729,17.3684676 C36.581239,21.8732159 23.6456514,16.8602396 13.0229023,21.7962116 C11.7053385,22.5055116 10.3460795,23.127911 8.95319591,23.6597144 C7.53934441,24.1894329 5.97872497,24.0976702 4.63144943,23.4056003 C3.34901008,22.6355579 2.57806388,20.841359 3.24522886,19.462983 C4.09771745,17.6995858 6.42538193,17.6071808 8.32309565,17.5147757 C13.8235003,17.2452608 18.9903224,14.8581292 24.3128163,13.402749 C29.6784008,11.9460059 35.2397205,11.4255561 40.7695525,11.8626641 C42.1112954,11.9704701 43.5790584,12.1090777 44.698413,11.3236344 C45.8177675,10.5381911 46.0623947,8.41287398 44.557567,8.12025785 Z" id="Path" fill="#FFFFFF"></path>
                    <path d="M13.3500701,5.98441519 C13.143902,4.54755108 13.4397997,3.08168807 14.1845372,1.85050564 C14.9595789,0.623631818 16.3099381,-0.0796972477 17.723572,0.00721388422 C19.0870317,0.153751723 20.197171,1.12552897 21.352014,1.88906823 C23.9522732,3.60124718 27.0368214,4.3030863 30.0468636,4.97407535 L46.989527,8.83033426 C47.7345869,9 48.6584613,9.27766029 48.9266829,10.0489121 C49.239608,10.9512767 48.4945481,11.8459287 47.7569387,12.4243676 C43.4206898,15.8255879 37.6539258,16.4580144 32.2149881,16.527427 C26.7760504,16.5968397 21.1806502,16.2420639 16.0471871,18.1162057 C12.4261957,19.4350462 8.71579715,21.8567768 5.05010217,20.6921867 C1.82399257,19.6664218 -0.105712709,15.9489882 0.00604628436,12.4629301 C-0.0527133633,11.4758531 0.319153057,10.5135056 1.01932782,9.84067409 C1.80730717,9.40056595 2.71065471,9.233004 3.59723526,9.36249799 C7.13051756,9.4568608 10.5831703,8.26096782 13.3500701,5.98441519 Z" id="Path" fill="#000000"></path>
                </g>
                <path d="M128.629497,64.9095549 C140.177602,65.1131071 150.60235,56.6920751 162.150454,57.0087119 C167.03331,57.1368744 171.721451,58.8406822 176.312234,60.521873 C177.690218,61.0269841 179.375253,62.1125961 178.92591,63.5374619 C178.581414,64.5778401 177.218409,64.8869379 176.154964,64.6532298 C175.09152,64.4195217 174.095478,63.8390208 173.002077,63.778709 C171.908677,63.7183972 170.63554,64.5326062 170.822766,65.6257572 C171.009992,66.7189082 172.148326,67.0129281 173.069479,67.4351106 C173.990631,67.857293 174.889316,68.942905 174.245258,69.7420361 C171.481802,70.7974922 168.650943,68.671502 165.865019,67.6688187 C161.86587,66.221336 157.402401,67.1260127 153.425719,68.6413461 C149.449037,70.1566796 145.697026,72.2902087 141.585542,73.3682817 C137.474057,74.4463548 132.733493,74.3106533 129.408358,71.6493961 C128.077804,70.6962862 127.205659,69.2248148 127.004375,67.593429 C126.921996,66.0102448 128.022885,64.2988981 128.629497,64.9095549 Z" id="Path" fill="#FDC3BA" fill-rule="nonzero"></path>
                <g id="shirt" transform="translate(55.000000, 41.000000)" fill-rule="nonzero">
                    <path d="M31.3394566,1.17039789 C34.5737004,4.33157938 33.061392,8.66134929 30.3062954,12.0098046 C27.5511988,15.3582598 24.0100014,17.5231448 19.6527563,17.643 C15.2955111,17.7628552 11.0206195,16.4594297 7.06765483,14.6466195 C6.36271478,14.2250864 5.54204637,14.038822 4.72432542,14.1147619 C3.39169719,14.3994181 2.83768321,15.9650269 2.47832279,17.2834344 C0.689007354,24.5646391 -1.0928214,32.2129005 0.831254187,39.4566505 C3.68367753,50.1911839 13.775716,57.1278049 23.164007,63.0606384 C31.9982841,68.6438941 40.8475344,74.1971861 49.7117582,79.7205143 L90.0200188,104.912584 C92.6178951,106.53812 96.2339594,108.088747 98.435042,105.968808 C100.426498,104.051124 99.5206099,100.78507 98.9291625,98.0808362 C97.0350336,89.466242 100.059651,80.4171728 104.753796,72.9412033 C109.447942,65.4652338 115.736749,59.1578527 121.269402,52.2811593 C123.807385,49.1424507 126.270501,44.7902079 124.264072,41.3218974 C122.64695,38.5427544 119.023399,37.8535869 115.811616,37.523985 C104.656469,36.3553966 93.0072023,35.8909576 83.1247907,30.5723821 C74.1407801,25.7182456 67.5974258,17.3508529 59.9160968,10.5116143 C52.2347678,3.67237566 42.427223,-1.93834694 32.507378,0.638540345 L31.3394566,1.17039789 Z" id="Path" fill="#FFD301"></path>
                    <path d="M29.5016608,64.2270187 C34.8456845,47.6628912 45.8079746,33.4587265 57.9561784,20.9930923 C59.6016337,19.3137458 61.4101521,17.5752152 63.70786,17.094345 C66.0055678,16.6134749 68.8962325,18.0116973 69,20.3568641 C52.9516688,32.5760497 40.7175806,49.1003517 33.7264784,68 C32.4152744,67.851224 31.1606148,67.3838354 30.0723818,66.6387675 C29.079179,65.8323853 28.5455178,64.2270187 29.5016608,64.2270187 Z" id="Path" fill="#FFBB00"></path>
                    <path d="M54.0605568,80.091784 C60.1204514,62.9048823 68.5299493,48.0931662 82.1219583,35.8336681 C83.1997765,34.7440809 84.4969423,33.892042 85.9289104,33.3330845 C87.2773208,32.7071834 88.8758845,32.9793153 89.9368192,34.0153719 C90.997754,35.0514284 91.2972049,36.632804 90.6876007,37.9801867 C90.2180712,39.2039624 89.5333015,40.3353412 88.6651573,41.3216745 C79.2370023,53.3156239 67.9648548,64.2842603 62.0090566,78.2993303 C61.3993494,79.7303427 61.9644439,79.7746008 60.9903995,81.0212044 C60.0544218,82.3029897 58.5403204,83.0429783 56.9455128,82.9980669 C55.391503,82.916927 53.6516069,81.2720004 54.0605568,80.091784 Z" id="Path" fill="#FFBB00"></path>
                    <path d="M39.7402413,70.8498195 C47.3797838,54.8080762 57.6811354,39.9208524 70.9375462,28.1857703 C72.8775088,26.4691822 75.1107215,25.1475613 77.1860303,26.6666658 C78.5770887,27.7072524 79.4418007,29.4846046 78.7650695,31.1024509 C78.0883384,32.7202971 76.8100685,33.9659628 75.5543563,35.1736509 C64.0056823,46.2753369 53.7161745,58.641023 44.8758787,72.0423165 C43.8006281,73.6677583 42.1163195,75.5438523 40.3041839,74.8526598 C38.6123561,74.1994449 38.7251447,71.2371911 39.7402413,70.8498195 Z" id="Path" fill="#FFBB00"></path>
                    <path d="M70,92.1680478 C70.6266335,78.3753779 78.0282807,68.3807992 85.3709507,56.8049435 C89.8605953,49.7308094 94.4681945,42.5129229 100.955694,37.3151368 C102.054146,36.4299243 103.521205,35.5825414 104.7671,36.2256445 C105.796325,36.9111746 106.247193,38.2216897 105.865552,39.4184622 C105.465431,40.5761252 104.826734,41.6316081 103.993023,42.5129229 C92.5956662,56.6082296 85.6805814,73.8282607 77.8882097,90.2992658 C77.062528,92.0394271 76.3400564,95.595409 74.5633662,94.9144763 C70.9583806,93.5374791 71.7693181,93.1818809 70,92.1680478 Z" id="Path" fill="#FFBB00"></path>
                </g>
                <g id="laptop" transform="translate(63.000000, 0.000000)">
                    <path d="M132.932773,58.0640695 L101.124112,56.0148186 C98.7257392,55.865405 96.3973768,56.8524668 94.8435164,58.677349 L67.2795156,91.1063702 C63.147545,95.9752108 64.7477445,101.84624 71.1485427,101.928509 L110.116782,102.998009 C113.196979,103.035404 116.021744,102.564226 117.772197,100.043797 L138.657431,69.8809177 C140.206208,67.6479655 140.431474,64.7591284 139.247409,62.3149792 C138.063344,59.8708301 135.652281,58.2477418 132.932773,58.0640695 L132.932773,58.0640695 Z" id="Path" fill="#0079C6" fill-rule="nonzero"></path>
                    <path d="M137.099788,54.441411 L99.9903715,52.0110342 C98.3288185,51.9026314 96.7146919,52.5977455 95.6382645,53.8852433 L65.4741792,90.0590023 C63.9174326,91.9224107 63.5614308,94.529068 64.5602196,96.7510464 C65.5590083,98.9730248 67.7331938,100.411232 70.1419831,100.44334 L112.2349,100.999507 C113.981752,101.023536 115.626458,100.167172 116.62459,98.7138866 L141.068549,62.7915458 C142.142731,61.2142246 142.29927,59.1739699 141.478589,57.4472866 C140.657909,55.7206032 138.986233,54.5730631 137.099788,54.441411 L137.099788,54.441411 Z" id="Path" fill="#029CDA" fill-rule="nonzero"></path>
                    <path d="M102.659872,68.7451008 L94.722359,78.5089203 C94.4693151,78.8191053 94.0905948,78.9993418 93.6904824,79 L83.3212041,79 C82.8114831,78.994744 82.3492473,78.6994344 82.1299109,78.2389157 C81.9105744,77.7783969 81.9724299,77.2330683 82.2893275,76.833472 L90.1546812,67.2574183 C90.8224328,66.441057 91.8283909,65.9776222 92.8822992,66.000832 L101.454813,66.1741543 C102.054961,66.1901755 102.594738,66.5436584 102.849708,67.0876274 C103.104678,67.6315964 103.031218,68.272982 102.659872,68.7451008 Z" id="Path" fill="#0079C6" fill-rule="nonzero"></path>
                    <polygon id="laptop-highlight" fill="url(#linearGradient-1)" opacity="0.226702009" points="144.856091 5 0.672678384 0 25 109 110 94.5 108.537713 48.2616279"></polygon>
                    <path d="M151.279088,10.0208414 L152.994055,51.8631904 C153.036591,52.4578362 152.849655,53.0460964 152.472109,53.5056845 L119.47762,97.3355263 C118.408726,98.7710354 116.544734,99.3546704 114.854663,98.7830211 C112.364231,97.9280242 110.239163,96.5330292 110.127317,95.0330346 L108.024617,50.9631937 C107.823295,50.1006968 108.911927,47.3482067 109.284746,46.8907084 L143.479712,6.26335501 C145.589868,3.78086397 148.520226,5.31835842 150.637839,7.76334959 C151.905424,9.31584399 151.159785,8.71584616 151.279088,10.0208414 Z" id="Path" fill="#0079C6" fill-rule="nonzero"></path>
                    <path d="M151.160223,9.57824253 L153.982386,52.2289058 C154.115258,54.1756213 153.492594,56.0988685 152.242799,57.6020422 L119.87005,96.603729 C118.872923,97.8127322 117.236049,98.2944282 115.738782,97.8194704 C114.241515,97.3445125 113.186461,96.008892 113.075954,94.4485291 L110.022344,53.4179816 C109.867277,51.3025365 110.523585,49.2072231 111.858989,47.5543515 L144.321331,7.42304261 C145.318231,6.19647163 146.968102,5.70283913 148.479177,6.17903744 C149.990252,6.65523576 151.054115,8.00407106 151.160223,9.57824253 L151.160223,9.57824253 Z" id="Path" fill="#17B5E5" fill-rule="nonzero"></path>
                    <path d="M132.449629,49.1405886 C133.35023,48.8131904 134.376626,49.0709981 134.973887,49.7746258 C135.536149,50.4745803 135.862888,51.3120206 135.913336,52.1824575 C136.127814,53.3233051 135.941751,54.4976302 135.382343,55.533797 C134.795135,56.5840572 133.538837,57.1613966 132.278077,56.9603807 C131.464025,56.7290425 130.802842,56.176177 130.472702,55.4507683 C130.139024,54.7368223 129.980028,53.9636205 130.007062,53.1863497 C129.954022,52.221708 130.200619,51.2631668 130.717775,50.4237591 C131.127523,49.8324411 131.735919,49.3816657 132.449629,49.1405886 L132.449629,49.1405886 Z" id="Path" fill="#0079C6" fill-rule="nonzero"></path>
                </g>
                <path d="M75.5653182,71.8546504 C87.7827385,91.2213077 91.1797997,114.650473 84.9450743,136.545818 C84.8091394,137.188667 84.5167414,137.790492 84.0923692,138.300889 C83.1388008,139.107738 81.7601543,139.228215 80.6738668,138.599625 C79.627029,137.96654 78.7439001,137.107972 78.0927054,136.090247 C63.1742072,116.000286 56.9210365,91.0035947 54.2015986,66.365386 C53.9328005,64.6150361 53.9328005,62.8355863 54.2015986,61.0852364 C54.3916808,59.1880743 55.556063,57.5131809 57.2958799,56.6342997 C59.0356968,55.7554185 61.1147443,55.7918697 62.8208339,56.7311668 C64.6098027,57.6025709 66.2416343,58.7501616 67.6528295,60.1292829 C71.647484,63.6618299 75.8418712,67.9113421 75.5653182,71.8546504 Z" id="right-shoulder" fill="#FFBB00" fill-rule="nonzero"></path>
                <path d="M138.382807,83.0160854 C141.879883,81.5473859 145.562359,80.5654853 149.326977,80.0979164 C150.138639,79.933117 150.978903,79.9768854 151.769002,80.2251187 C152.572387,80.502364 153.078412,81.2962114 152.990015,82.1406347 C152.720344,83.457552 150.945006,83.5772717 149.61163,83.7718163 C147.506582,84.096416 145.647184,85.320059 144.517834,87.1239693 C145.663938,87.7076031 147.004805,87.056627 148.210836,86.6151604 C149.416867,86.1736938 151.117296,86.1512464 151.611694,87.3634088 C151.78718,87.8955671 151.78718,88.4699146 151.611694,89.0020729 C150.678747,92.3934966 148.351736,95.2317164 145.206995,96.8137867 C142.675079,98.0558791 139.806073,98.4075559 137.169285,99.4102088 C128.569759,102.695019 124.13516,112.130432 116.764138,117.674953 C114.247204,119.560539 111.39318,120.982211 108.9961,123.009965 C105.198225,126.219951 102.763691,130.761819 99.1455974,134.173832 C96.3766248,136.774026 93.0007433,138.641413 89.3250587,139.606115 C87.0777959,140.189749 84.3885713,140.309469 82.7705421,138.65584 C81.6394198,137.496055 81.3472756,135.775083 81.1974581,134.166349 C80.7995045,129.864102 81.0037223,125.527448 81.8042191,121.281511 C82.1637811,119.373477 82.7106151,117.360689 84.1638451,116.043772 C85.8343104,114.547275 88.2463726,114.375178 90.4486902,113.941194 C94.508745,113.14805 98.2766557,111.277429 101.984639,109.451703 C111.917541,104.490816 122.210005,99.2605591 129.041684,90.5210173 C130.320485,88.6685825 131.740475,86.917472 133.289011,85.2832782 C134.884568,83.7344039 137.026958,82.5746188 138.382807,83.0160854 Z" id="arm-right" fill="#FDC3BA" fill-rule="nonzero"></path>
                <path d="M85.026916,42.6346626 C86.0913263,41.7629132 87.6005874,41.7921026 88.6329692,42.7044043 C89.6176218,43.6344169 90.1166772,44.9955573 89.9768399,46.3697227 C89.827216,47.7250088 89.3635524,49.0225162 88.6255032,50.1512775 C86.0572169,54.4210247 81.7195008,57.2416925 77.2100679,59.1014736 C74.4610197,60.3360926 71.500083,60.9818393 68.5047718,61 C65.4836578,60.9974489 62.5847379,59.7616179 60.4340814,57.5594051 C59.5868815,56.7262256 59.0747773,55.5911976 59.0006193,54.3822793 C58.9734148,53.1391717 59.8454498,52.0710134 61.0313573,51.8948222 L85.026916,42.6346626 Z" id="neck" fill="#FFFFFF" fill-rule="nonzero"></path>
                <path d="M73.0170379,9.09865524 C77.1565896,13.1004582 80.4611957,17.8984875 82.7361592,23.210058 C84.1641224,26.5623656 85.1734157,30.2921853 84.3285998,33.8332489 C83.4837839,37.3743125 80.2689976,40.5454142 76.6729227,40.2207538 C76.9271151,41.5420462 78.2354584,42.4103241 79.5288491,42.7123338 C80.8222399,43.0143435 82.1829169,42.9086401 83.5062126,43.1049464 C84.8295084,43.3012527 86.2126141,43.9128223 86.7658564,45.1359615 C87.5134811,46.8574168 86.3397103,48.8129295 85.091177,50.232375 C81.9287245,53.8187401 77.9139797,56.899239 73.2413253,57.7826173 C68.5686708,58.6659956 63.1932491,56.838837 60.890565,52.6333521 C63.361348,48.667767 62.6134911,43.4769638 59.1261706,40.3868591 C57.7111411,41.3688881 55.8906348,41.5321215 54.32642,40.817223 C52.7950642,40.0876217 51.4859446,38.9559034 50.5359627,37.5404178 C49.7715123,36.5989634 49.2569401,35.4764868 49.0407132,34.2787132 C48.8483087,33.0581488 49.347495,31.8313427 50.334104,31.1000612 C51.634971,30.2695345 53.3246028,30.7980515 54.7749948,31.3492192 C57.0178689,32.2099468 57.2272039,31.3492192 59.4626018,32.2401478 C58.4981659,29.9750751 59.5448405,29.4616586 58.5878808,27.2267869 C57.7804461,25.3694273 56.9655352,23.3006609 57.5860637,21.3677989 C58.2664022,19.2763818 60.4046089,18.068343 62.4306719,17.2604671 C64.4567349,16.4525912 66.6846565,15.7504187 68.0528097,14.0289634 C68.8677207,13.0021305 69.301343,11.7034888 70.116254,10.6766559 C70.9311649,9.64982293 72.5834155,8.68339192 73.0170379,9.09865524 Z" id="face" fill="#FDC3BA" fill-rule="nonzero"></path>
                <path d="M86.439483,109.344324 L86.439483,109.344324 C88.0179526,108.690556 89.8257864,108.981743 91.1245742,110.098949 C91.3843946,110.329391 91.6673915,110.531727 91.9689367,110.702649 C93.0150495,111.321441 94.2106071,111.849679 94.7934414,112.966523 C95.2641922,113.856981 94.7934414,117.426356 94.718719,118.430007 L92.7908825,138.367195 C92.6563823,139.695335 92.4770486,141.136668 91.5355471,142.064857 C90.1531837,143.430728 87.8890966,143.030776 86.0210379,142.547817 C84.1529792,142.064857 82.1877815,141.491342 81.0221129,139.967 C79.4155825,137.861596 80.0208335,134.850643 80.6933346,132.277373 C82.456782,125.576304 84.5714244,116.430251 86.1032325,109.736729 C86.1446742,109.558082 86.2703711,109.411393 86.439483,109.344324 L86.439483,109.344324 Z" id="right-arm-highlight" fill="#FFFFFF" fill-rule="nonzero"></path>
                <path d="M45.5233651,50.7016386 C42.6476742,49.0312406 44.2402484,48.357089 42.7231516,46.9563517 C41.5155124,45.8177845 39.6134806,45.7653505 38.0058109,46.2072943 C36.3981412,46.6492382 34.9338786,47.4881824 33.3413044,47.9600886 C30.0124357,48.8915916 26.4349383,48.1473786 23.7632158,45.967596 C21.8989228,44.4095566 20.4346602,42.1174411 18.0571205,41.5931009 C15.6795808,41.0687608 13.2718501,42.6268001 10.9245013,43.4882161 C7.44499081,44.7616136 3.05975089,44.3571226 0.893548028,41.046289 C-0.258309528,39.3619949 -0.299750698,37.161686 0.787879596,35.4358493 C3.15787157,31.8328834 8.38091121,33.9377346 11.1282904,31.3534867 C12.211542,30.1559703 12.7827043,28.5870972 12.7208647,26.9789916 C12.7736989,25.3834994 12.5397188,23.7880072 12.7208647,22.2074962 C13.3812174,17.6727561 17.1687368,14.2271616 21.7781588,13.9678651 C25.5520314,13.8555065 29.4315724,15.9453766 32.9035352,14.514677 C37.0774383,12.791845 38.0058109,7.06904671 41.7570402,4.55970452 C44.0213638,3.06158978 47.0404619,2.95672174 49.7123636,3.63836395 C50.9289048,4.06795387 52.198336,4.33251517 53.4862362,4.42487419 C54.7769006,4.42487419 56.188329,3.72076026 56.5053343,2.47732503 C58.2866021,0.379964388 62.0529269,-0.443998719 65.3211006,0.230152914 C68.5892742,0.904304548 71.4649651,2.73949511 74.1670579,4.67206312 C75.3067674,5.48104508 76.4691202,6.35744221 76.8842462,7.76567006 C77.0852391,8.39487099 77.0226745,9.07786914 76.710648,9.66078521 C75.7294412,11.3911077 73.3443537,10.6869938 71.8574479,11.6982213 C70.3705421,12.7094487 70.4158286,14.7693565 69.4723604,16.1925655 C67.4646602,19.2861724 62.2038819,18.4397376 59.8565331,21.2636839 C58.407366,23.0164781 58.5885119,25.5707638 59.1017586,27.780483 C59.6150053,29.9902023 60.392423,32.2748272 58.9432559,34.4021502 C58.5770573,34.00391 58.0657952,33.7672601 57.5230128,33.7447569 C56.9802304,33.7222537 56.4508611,33.9157599 56.0524696,34.282301 C55.2714324,35.070807 54.9648208,36.2083363 55.2448608,37.2785305 L55.3127905,37.5407006 C55.9311655,39.6291021 55.582739,41.8822078 54.3617746,43.6904616 C51.1992694,48.1922964 47.9688345,52.1323381 45.5233651,50.7016386 Z" id="hair" fill="#000000" fill-rule="nonzero"></path>
                <g id="headphones" transform="translate(47.000000, 2.000000)" fill-rule="nonzero">
                    <path d="M6.95206378,27.489508 C4.94643553,23.0495768 5.69570797,17.8162559 7.36075784,13.2390073 C8.25645786,10.4153522 9.81412059,7.85088626 11.9018029,5.76283453 C14.0739362,3.77936013 17.1996889,2.64267673 20,3.38266525 C18.8718741,1.18726145 16.5680136,-0.13374854 14.1193466,0.0107587757 C11.7080788,0.194538552 9.45295218,1.28345145 7.79972553,3.06225785 C6.17221516,4.8388386 4.83602867,6.86553552 3.84144789,9.06608228 C0.814084498,15.2453679 -1.35804874,22.5155645 0.995726302,29 L6.95206378,27.489508 Z" id="Path" fill="#DDDDDD"></path>
                    <path d="M3.59116497,27.2795117 C5.38430618,26.6432759 7.37091121,27.1124583 8.71986114,28.4907711 C10.0229879,29.8632981 10.960393,31.5617538 11.4407537,33.4206737 C12.1042043,35.5423063 12.4247478,38.1345556 10.9636657,39.7701415 C9.70385518,41.1819915 7.4898686,41.313147 5.80515154,40.4953541 C4.16214234,39.5729241 2.7954771,38.201195 1.85426641,36.5298299 C0.780818375,34.8556689 -0.150994156,32.934627 0.0204593493,30.9287198 C0.191912855,28.9228126 1.90644791,26.9709106 3.59116497,27.2795117 Z" id="Path" fill="#DDDDDD"></path>
                    <path d="M5.41647048,31.0286024 C6.62182852,31.0292636 7.76057747,31.5359098 8.50742669,32.4038144 C9.1805248,33.2170593 9.6358068,34.1640631 9.83653785,35.1684159 C10.1370052,35.915303 10.0185854,36.749918 9.51971484,37.4013633 C8.98238101,37.8524211 8.25658964,38.0648568 7.53377548,37.9826385 C5.60192786,37.8550415 4.13372366,36.4372971 3.42280373,34.9486655 C2.95154203,34.133969 2.8703767,33.1762976 3.19870941,32.3045723 C3.55416937,31.4681031 4.79055185,30.8584731 5.41647048,31.0286024 Z" id="Path" fill="#232323"></path>
                </g>
            </g>
        </g>
    </g>
</svg>