<?xml version="1.0" encoding="UTF-8"?>
<svg width="261px" height="260px" viewBox="0 0 261 260" version="1.1" xmlns="http://www.w3.org/2000/svg" xmlns:xlink="http://www.w3.org/1999/xlink">
    <title>Planet-blue2</title>
    <defs>
        <linearGradient x1="0%" y1="50%" x2="100%" y2="50%" id="linearGradient-1">
            <stop stop-color="#00BDEE" offset="0%"></stop>
            <stop stop-color="#0081CB" offset="81%"></stop>
        </linearGradient>
        <linearGradient x1="59.5160974%" y1="19.4306988%" x2="25.4151432%" y2="101.81109%" id="linearGradient-2">
            <stop stop-color="#00AFE2" offset="0%"></stop>
            <stop stop-color="#0075C3" offset="81%"></stop>
        </linearGradient>
        <linearGradient x1="60.5262472%" y1="7.60495217%" x2="43.7666131%" y2="88.4558812%" id="linearGradient-3">
            <stop stop-color="#00AFE2" offset="0%"></stop>
            <stop stop-color="#0075C3" offset="81%"></stop>
        </linearGradient>
    </defs>
    <g id="Page-1" stroke="none" stroke-width="1" fill="none" fill-rule="evenodd">
        <g id="Desktop-HD-Copy-4" transform="translate(-551.000000, -500.000000)" fill-rule="nonzero">
            <g id="Planet-blue2" transform="translate(551.000000, 500.000000)">
                <ellipse id="Oval" fill="#153651" opacity="0.7" cx="130.5" cy="130" rx="130.5" ry="130"></ellipse>
                <ellipse id="Oval" fill="url(#linearGradient-1)" cx="129.5" cy="130" rx="104.5" ry="105"></ellipse>
                <path d="M168.817891,40.6536423 C146.6008,31.6979079 120.201579,40.0896792 102.481965,56.2190246 C84.762352,72.3483701 74.3258,94.9520122 66.569715,117.638369 C63.7240652,125.909828 61.1487146,134.670055 62.2674529,143.377646 C63.3861912,152.085237 69.1450656,160.777788 77.7120482,162.627588 C89.6727873,165.214298 100.319572,153.882399 104.524226,142.377551 C108.72888,130.872704 109.524761,117.976747 116.117058,107.659981 C128.73102,87.9287914 157.743133,84.5374931 171.280617,65.4454614 C174.374041,61.076627 176.536435,55.7603346 175.883212,50.4515617 C175.229989,45.1427888 171.092909,40.0671207 168.817891,40.6536423 Z" id="Path" fill="url(#linearGradient-2)"></path>
                <path d="M189.371214,68.1980892 C182.312457,66.7827786 175.87342,73.1853742 173.560809,79.9474138 C171.248197,86.7094534 171.542941,94.0930315 169.540189,100.914978 C165.973023,113.106119 155.732536,122.08473 145.635642,129.902636 C135.538749,137.720543 124.723888,145.590868 119.085951,156.980748 C113.448015,168.370629 115.307174,184.590538 126.552816,190.626201 C136.543904,195.97293 148.877834,191.375043 158.763116,185.833615 C170.83224,179.078725 182.089344,170.989476 192.31866,161.720916 C202.143482,152.817189 211.136973,142.625455 216.412146,130.50171 C221.687319,118.377964 222.911643,104.082578 217.439974,92.0412055 C211.968304,79.9998327 199.233823,70.175031 189.371214,68.1980892 Z" id="Path" fill="url(#linearGradient-3)"></path>
                <path d="M234,130.673018 C234,180.154891 199.721383,222.963207 151.624637,233.550513 C103.527892,244.13782 54.5831485,219.648743 34,174.698047 C68.4302887,213.766899 126.135893,221.608731 169.65449,193.132646 C213.173088,164.656561 229.382289,108.449103 207.759124,61 C224.693225,80.215903 234.029299,105.004489 234,130.673018 Z" id="Path" fill="#000000" opacity="0.2"></path>
                <path d="M158.395374,57.4209686 C152.277466,45.3763799 137.360852,39.8283412 123.949379,41.205941 C110.537905,42.5835409 98.3769713,49.5468187 87.189511,57.0972703 C73.6132959,66.2436299 60.5987002,76.669727 51.0137275,89.9789975 C40.9721932,103.978382 35.1093496,120.565783 34.1127249,137.796015 C33.7158472,144.789404 34.2325371,152.151659 37.8568549,158.121258 C41.0169006,163.390766 46.3260768,167.1547 52.0845487,169.360365 C62.927549,173.523276 75.2981543,172.476902 86.0887368,168.216129 C96.8793193,163.955356 106.307039,156.698491 114.633984,148.590977 C127.064495,136.546389 137.405782,122.491859 147.694651,108.527664 C152.404766,102.128976 157.189764,95.594787 159.795679,88.0744469 C163.472415,77.3472351 162.236852,64.9940038 158.395374,57.4209686 Z" id="Path" fill="#00BDE9" opacity="0.4"></path>
            </g>
        </g>
    </g>
</svg>