<?xml version="1.0" encoding="UTF-8"?>
<svg width="133px" height="133px" viewBox="0 0 133 133" version="1.1" xmlns="http://www.w3.org/2000/svg" xmlns:xlink="http://www.w3.org/1999/xlink">
    <title>Planet-orange1</title>
    <defs>
        <linearGradient x1="3.03013406%" y1="34.2354175%" x2="97.744001%" y2="66.0337659%" id="linearGradient-1">
            <stop stop-color="#FFE700" offset="0%"></stop>
            <stop stop-color="#FF8121" offset="81%"></stop>
        </linearGradient>
        <linearGradient x1="0.0192666357%" y1="49.9169814%" x2="100%" y2="49.9169814%" id="linearGradient-2">
            <stop stop-color="#FBA000" offset="0%"></stop>
            <stop stop-color="#FC5507" offset="100%"></stop>
        </linearGradient>
        <linearGradient x1="0.0811594203%" y1="49.9877454%" x2="100%" y2="49.9877454%" id="linearGradient-3">
            <stop stop-color="#FBA000" offset="0%"></stop>
            <stop stop-color="#FC5507" offset="100%"></stop>
        </linearGradient>
        <linearGradient x1="0.0729649578%" y1="50%" x2="100.072863%" y2="50%" id="linearGradient-4">
            <stop stop-color="#FBA000" offset="0%"></stop>
            <stop stop-color="#FC5507" offset="100%"></stop>
        </linearGradient>
        <linearGradient x1="-0.0164746729%" y1="49.8573822%" x2="100%" y2="49.8573822%" id="linearGradient-5">
            <stop stop-color="#FBA000" offset="0%"></stop>
            <stop stop-color="#FC5507" offset="100%"></stop>
        </linearGradient>
        <linearGradient x1="-0.0942319965%" y1="49.7941852%" x2="99.9173269%" y2="49.7941852%" id="linearGradient-6">
            <stop stop-color="#FBA000" offset="0%"></stop>
            <stop stop-color="#FC5507" offset="100%"></stop>
        </linearGradient>
        <linearGradient x1="-0.0224688591%" y1="49.9890406%" x2="100.031361%" y2="49.9890406%" id="linearGradient-7">
            <stop stop-color="#FBA000" offset="0%"></stop>
            <stop stop-color="#FC5507" offset="100%"></stop>
        </linearGradient>
        <linearGradient x1="-0.0107696049%" y1="49.9024886%" x2="99.9957813%" y2="49.9024886%" id="linearGradient-8">
            <stop stop-color="#FBA000" offset="0%"></stop>
            <stop stop-color="#FC5507" offset="100%"></stop>
        </linearGradient>
    </defs>
    <g id="Page-1" stroke="none" stroke-width="1" fill="none" fill-rule="evenodd">
        <g id="Desktop-HD-Copy-4" transform="translate(-1229.000000, -130.000000)" fill-rule="nonzero">
            <g id="Planet-orange1" transform="translate(1229.000000, 130.000000)">
                <circle id="Oval" fill="#153651" opacity="0.7" cx="66.5" cy="66.5" r="66.5"></circle>
                <path d="M119.997962,68.4873214 C120,70.6777489 119.862465,72.8661244 119.583411,75.0390616 C118.970013,79.9554591 117.650213,84.7598657 115.66402,89.3066325 C115.186659,90.3961019 114.684173,91.4631848 114.156562,92.5078814 C112.984186,94.779125 111.643926,96.9615158 110.146724,99.0372353 C109.845233,99.4551139 109.536204,99.8729926 109.219638,100.283409 C96.7810678,116.447167 76.0480538,124.067879 55.9686858,119.856546 L55.9686858,119.856546 C55.3129416,119.722228 54.6571974,119.572986 54.0089905,119.416281 L54.0089905,119.416281 C46.2467539,117.453205 39.0325121,113.780026 32.9045793,108.670831 C18.4028661,96.5799931 11.5089984,77.7540546 14.815084,59.2716048 C15.1266253,57.545368 15.5185643,55.8514671 15.9909012,54.189902 L15.9909012,54.189902 C17.3455118,49.4374707 19.3757739,44.8998645 22.0207329,40.7133156 C26.2098778,34.0697325 31.8440596,28.4356558 38.5123228,24.2220334 C55.0118169,13.8216267 75.9519105,13.248148 93.0069274,22.7296096 C95.6650071,24.2014241 98.1871581,25.901879 100.544217,27.8113124 C106.481084,32.5953262 111.304347,38.592275 114.684173,45.3920641 C115.121335,46.2725941 115.535886,47.1755104 115.927825,48.0858889 C116.093646,48.4813812 116.259466,48.8768735 116.417749,49.2723658 C116.734315,50.0633504 117.02827,50.8692592 117.307149,51.6826301 C117.976804,53.6382562 118.528006,55.6316963 118.957816,57.6523251 C119.681549,61.2187366 120.030125,64.849785 119.997962,68.4873214 L119.997962,68.4873214 Z" id="Path" fill="url(#linearGradient-1)"></path>
                <path d="M119,57.987415 C119,57.987415 119,57.987415 119,57.987415 C117.487051,57.9291148 115.974101,57.6667637 114.506541,57.6886263 C111.435253,57.7323515 108.575779,59.2190075 106.102107,60.9825897 C104.884183,61.8570932 103.734341,62.804472 102.561806,63.7299883 C101.364139,64.7059565 100.100573,65.6042957 98.7794325,66.4190867 C96.2074187,67.9713305 92.5006929,68.8604091 90.3674344,66.7761757 C88.9376973,65.3842575 88.8090966,63.1761361 89.1722044,61.2595158 C90.1631862,56.0124945 94.1498076,51.588964 99.0063749,49.0893414 C103.7646,46.6553065 109.279301,45.8828284 114.6654,46.0140039 L114.6654,46.0140039 C115.104156,46.8739324 115.520217,47.7557235 115.898454,48.6448021 C116.064878,49.0310411 116.231303,49.4172802 116.390162,49.8035193 C116.707882,50.5759974 117.002907,51.3630506 117.282803,52.1573913 C117.975361,54.0660083 118.548784,56.0128265 119,57.987415 L119,57.987415 Z" id="Path" fill="url(#linearGradient-2)"></path>
                <path d="M80,46.7501156 C78.8625514,50.21868 76.4806092,53.1332453 73.3217391,54.921694 C70.3091014,56.5829489 66.8215652,57.1666331 63.4082319,57.5557558 C52.1071304,58.9251687 40.6947246,58.9625843 29.2748986,59 C25.0304928,59 20.3705507,58.8653037 17.2169275,56.0067479 C16.7551006,55.587627 16.3463649,55.1125949 16,54.5924362 L16,54.5924362 C17.3335833,49.8266232 19.33233,45.27624 21.9362319,41.0779028 C24.3966138,40.745078 26.880759,41.4884638 28.7628986,43.1207974 C30.6847536,44.8718499 31.7310145,47.4460467 33.8012754,49.1073017 C37.3852754,51.9808237 42.572058,51.0379493 47.0242319,49.9379291 L66.3169855,45.1936245 C68.6299568,44.5124163 71.0236886,44.1499382 73.4330435,44.1160537 C75.8855035,44.0605308 78.2553133,45.0110816 80,46.7501156 L80,46.7501156 Z" id="Path" fill="url(#linearGradient-3)"></path>
                <path d="M84.5535562,75.8945874 C83.2359597,78.1653786 81.0404636,79.8136352 78.4679997,80.4632854 C76.6243459,80.7954201 75.020517,81.0611279 73.4166881,81.3268357 C65.3450819,81.8582513 57.7531254,81.6811128 50.3260485,82.9579864 C42.8989716,84.23486 35.5618291,87.0690765 30.0908239,92.2060939 C27.9099164,94.2579485 25.8339322,96.7674111 23.203353,98 C17.1916861,89.3712511 13.982342,79.1481019 14,68.6835731 C13.9987999,65.6276958 14.2696404,62.5775948 14.8094821,59.5683195 C15.1649659,59.3440378 15.5414041,59.1537326 15.9336612,59 C25.376766,68.3219152 39.8636879,72.2337245 52.1697023,68.3219152 C56.4041104,66.9712339 60.3162538,64.8086677 64.4532331,63.1996593 C68.5902123,61.590651 73.1468851,60.5425814 77.4787221,61.5537472 C81.8105591,62.5649129 85.7227025,66.1076836 86,70.4771007 C85.9370134,72.3669811 85.4426332,74.2186246 84.5535562,75.8945874 Z" id="Path" fill="url(#linearGradient-4)"></path>
                <path d="M119,74.0870926 C118.385203,79.0393191 117.062391,83.8787387 115.071666,88.4586408 L115.071666,88.4586408 C107.370329,93.1769199 99.0735348,96.8570749 90.3987063,99.402665 C86.7979015,100.45627 83.1408991,101.309462 79.4446979,101.958275 C74.09612,102.905354 68.5964524,103.423993 63.2327655,102.559595 C60.8002202,102.176254 57.8615241,100.808251 58.0050594,98.3578715 C58.0806043,97.057517 59.0702423,95.990174 60.0900983,95.1633589 C66.1336891,90.2325349 74.5040624,89.5259839 82.3154036,89.0298948 C87.6035456,88.6841358 93.1863126,88.2782448 98.0967302,86.4367023 C100.427552,85.6124428 102.599357,84.3972634 104.518045,82.8438153 C107.169671,80.6640302 109.201828,77.7776942 112.019653,75.8158876 C114.018294,74.3544712 116.51655,73.7384516 118.969782,74.1021256 C118.969782,74.1021256 118.992446,74.0720596 119,74.0870926 Z" id="Path" fill="url(#linearGradient-5)"></path>
                <path d="M48.9372088,102.267677 C47.4898053,103.148679 45.7333209,103.368929 44.0597606,103.736014 C40.5811621,104.446538 37.2618005,105.759501 34.259633,107.612422 C33.505777,108.060265 32.8273067,108.544816 32.1036049,109 C30.2953769,107.52155 28.5903929,105.927315 27,104.227906 C32.6689969,100.043147 38.8355388,96.3502807 45.8463993,96.0125633 C47.768732,95.9171214 50.0830699,96.342939 50.8218487,98.0682345 C51.432472,99.5806211 50.3921508,101.386675 48.9372088,102.267677 Z" id="Path" fill="url(#linearGradient-6)"></path>
                <path d="M77.2467214,111.706109 C76.8677196,112.294645 76.371038,112.799252 75.7875937,113.188518 C74.571699,113.922264 73.2167382,114.398454 71.80746,114.587305 C71.1046341,114.724142 70.3865294,114.82297 69.6913429,114.937001 C65.3528104,115.652938 61.1391918,116.981502 57.1779859,118.882491 L56.8953276,119.011727 C56.4216841,119.23979 55.9480405,119.483057 55.474397,119.726324 L55.474397,119.726324 L54.9549169,120 C54.0458269,119.809947 53.1443763,119.597089 52.2505651,119.353821 L53.4575922,119.2778 C50.2051509,118.45863 47.0383645,117.333523 44,115.917672 C52.4546821,111.255477 61.6137338,107.989727 71.1199129,106.247801 C73.4117366,105.822083 76.329992,105.73846 77.5675767,107.722608 C78.2440866,109.000389 78.1191208,110.551871 77.2467214,111.706109 L77.2467214,111.706109 Z" id="Path" fill="url(#linearGradient-7)"></path>
                <path d="M99.9970469,27.1624827 C100.000984,27.2214873 100.000984,27.2806976 99.9970469,27.3397023 C99.71016,29.8838867 98.3639209,32.178102 96.3030724,33.6348491 C94.825788,34.6928402 93.1770514,35.4754152 91.4330571,35.9464085 C90.2344001,36.3008476 88.9980494,36.5628243 87.7692375,36.8016855 C72.7897941,39.6680192 57.3731047,39.4368632 42.2202707,37.7879508 C39.0238519,37.4412169 35.6917362,36.978905 33.0833379,35.0526055 C31.4718238,33.8495105 30.3692765,32.064113 30,30.0596372 C32.4518201,27.6836639 35.1200808,25.5524879 37.9684306,23.6951436 C40.3355898,24.0726983 42.5595132,25.1591312 44.8135915,26.006703 C52.812177,29.0887822 61.6400222,29.6050305 70.121086,28.4261352 C74.0184632,27.8647855 77.870825,27.0149801 81.6477941,25.8834198 L81.6477941,25.8834198 C85.3116137,24.8046921 88.9151235,23.5102188 92.4658622,22.0924624 L92.6995626,22 C95.2672241,23.5121333 97.7080483,25.2388534 99.9970469,27.1624827 L99.9970469,27.1624827 Z" id="Path" fill="url(#linearGradient-8)"></path>
                <path d="M119,67.9881662 C119,70.1955717 118.861427,72.4008165 118.586741,74.5911896 C117.974933,79.5331858 116.659324,84.3630779 114.679597,88.9351722 C114.213745,90.0182078 113.71283,91.0812796 113.17685,92.1243876 C112.008137,94.403028 110.672064,96.5925264 109.179541,98.675006 C108.878992,99.0942455 108.570929,99.5134851 108.255352,99.9252383 C95.7855936,116.367404 74.8889331,124.128825 54.659863,119.831632 C53.7657283,119.644471 52.8791073,119.434851 52,119.195286 L53.1871705,119.120422 L53.1871705,119.120422 C54.4119097,119.030585 55.6216214,118.903316 56.8238194,118.731128 C61.8012266,118.026843 66.6486765,116.601855 71.2126264,114.5013 C73.051185,113.662871 74.8376491,112.715387 76.5624075,111.663946 C81.7475619,108.521469 86.3506604,104.512516 90.1697858,99.812942 C97.652339,90.5575621 101.725632,79.0268162 101.710886,67.1422007 C101.710886,65.7646992 101.65829,64.4021706 101.545584,63.0546148 C100.78256,53.063313 97.1286621,43.5067002 91.0263519,35.5420176 C88.2151134,31.883159 84.9307022,28.6106884 81.2584933,25.8096702 L81.2584933,25.8096702 C74.7129082,20.778721 67.0575539,17.3755932 58.9276659,15.882676 C58.4618141,15.7928389 57.9959624,15.7179747 57.5301107,15.6431105 C80.6453979,12.0322969 103.418245,23.8785106 113.657729,44.8401525 C114.093526,45.7235501 114.506781,46.6294071 114.882468,47.5427504 C115.04777,47.9395308 115.213072,48.3363111 115.370861,48.7330914 C115.686438,49.526652 115.979474,50.3351855 116.257482,51.1512054 C118.076113,56.5873859 119.002193,62.2804014 119,68.0106255 L119,67.9881662 Z" id="Path" fill="#000000" opacity="0.2"></path>
                <path d="M71.6341408,29.2577179 C69.2964372,24.6530288 63.589472,22.5626934 58.4539454,23.0759786 C53.3184188,23.5892638 48.6726968,26.2598347 44.3535111,29.1386953 C39.1586143,32.627547 34.1789346,36.5776115 30.5128217,41.6881469 C26.6699135,47.0280554 24.4250946,53.3553211 24.0414645,59.9283693 C23.8930389,62.5989402 24.0934135,65.4108505 25.4663505,67.7020367 C26.7538213,69.6985753 28.667699,71.2087139 30.9061496,71.9942913 C35.0546458,73.5787805 39.811687,73.1845179 43.9156555,71.5553953 C48.0125878,69.8019449 51.7246708,67.2564625 54.8397815,64.0644067 C59.5968227,59.4597176 63.5597869,54.103698 67.4559595,48.777434 C69.2593308,46.3374695 71.0923873,43.8454326 72.086839,40.9740109 C73.5785165,36.8677292 73.1109758,32.1514563 71.6341408,29.2577179 Z" id="Path" fill="#FFE739" opacity="0.4"></path>
            </g>
        </g>
    </g>
</svg>