<?xml version="1.0" encoding="UTF-8"?>
<svg width="465px" height="341px" viewBox="0 0 465 341" version="1.1" xmlns="http://www.w3.org/2000/svg" xmlns:xlink="http://www.w3.org/1999/xlink">
    <title>Planet-orange2</title>
    <defs>
        <linearGradient x1="12.2613034%" y1="39.2339388%" x2="96.6379464%" y2="75.6945821%" id="linearGradient-1">
            <stop stop-color="#FFE700" offset="0%"></stop>
            <stop stop-color="#FF911C" offset="80%"></stop>
        </linearGradient>
        <linearGradient x1="0.000426448666%" y1="50.0028579%" x2="100.004557%" y2="50.0028579%" id="linearGradient-2">
            <stop stop-color="#FF9900" offset="0%"></stop>
            <stop stop-color="#FF7B0A" offset="100%"></stop>
        </linearGradient>
        <linearGradient x1="0.000555652286%" y1="50.0088187%" x2="100.058743%" y2="50.0088187%" id="linearGradient-3">
            <stop stop-color="#FBA000" offset="0%"></stop>
            <stop stop-color="#FC5507" offset="100%"></stop>
        </linearGradient>
        <linearGradient x1="0.00043495695%" y1="49.9739169%" x2="100.002442%" y2="49.9739169%" id="linearGradient-4">
            <stop stop-color="#FBA000" offset="0%"></stop>
            <stop stop-color="#FC5507" offset="100%"></stop>
        </linearGradient>
        <linearGradient x1="0.0452440215%" y1="49.9952325%" x2="99.990532%" y2="49.9952325%" id="linearGradient-5">
            <stop stop-color="#FBA000" offset="0%"></stop>
            <stop stop-color="#FC5507" offset="100%"></stop>
        </linearGradient>
        <linearGradient x1="-0.00872169277%" y1="50.0487395%" x2="99.9825452%" y2="50.0487395%" id="linearGradient-6">
            <stop stop-color="#FBA000" offset="0%"></stop>
            <stop stop-color="#FC5507" offset="100%"></stop>
        </linearGradient>
        <linearGradient x1="-0.00421941807%" y1="50.0064597%" x2="99.9710141%" y2="50.0064597%" id="linearGradient-7">
            <stop stop-color="#FF9900" offset="0%"></stop>
            <stop stop-color="#FF7B0A" offset="100%"></stop>
        </linearGradient>
        <linearGradient x1="-0.0283883952%" y1="49.992168%" x2="100.017109%" y2="49.992168%" id="linearGradient-8">
            <stop stop-color="#FF9900" offset="0%"></stop>
            <stop stop-color="#FF7B0A" offset="100%"></stop>
        </linearGradient>
        <linearGradient x1="-105.183746%" y1="50.012022%" x2="-104.578764%" y2="50.012022%" id="linearGradient-9">
            <stop stop-color="#FF9900" offset="0%"></stop>
            <stop stop-color="#FF7B0A" offset="100%"></stop>
        </linearGradient>
        <linearGradient x1="0.052136883%" y1="50.0096065%" x2="100.009887%" y2="50.0096065%" id="linearGradient-10">
            <stop stop-color="#FF9900" offset="0%"></stop>
            <stop stop-color="#FF7B0A" offset="100%"></stop>
        </linearGradient>
        <linearGradient x1="-0.00387482394%" y1="49.9895196%" x2="99.9864325%" y2="49.9895196%" id="linearGradient-11">
            <stop stop-color="#FBA000" offset="0%"></stop>
            <stop stop-color="#FC5507" offset="100%"></stop>
        </linearGradient>
        <linearGradient x1="-0.00134016162%" y1="49.9870109%" x2="100.004613%" y2="49.9870109%" id="linearGradient-12">
            <stop stop-color="#FF9900" offset="0%"></stop>
            <stop stop-color="#FF7B0A" offset="100%"></stop>
        </linearGradient>
        <linearGradient x1="0.00123084923%" y1="50.0034203%" x2="99.9987026%" y2="50.0034203%" id="linearGradient-13">
            <stop stop-color="#FF9900" offset="0%"></stop>
            <stop stop-color="#FF7B0A" offset="100%"></stop>
        </linearGradient>
        <linearGradient x1="-0.0614981126%" y1="50.0539674%" x2="99.8399463%" y2="50.0539674%" id="linearGradient-14">
            <stop stop-color="#FBA000" offset="0%"></stop>
            <stop stop-color="#FC5507" offset="100%"></stop>
        </linearGradient>
        <linearGradient x1="0.108422249%" y1="49.9062857%" x2="99.9906983%" y2="49.9062857%" id="linearGradient-15">
            <stop stop-color="#FF9900" offset="0%"></stop>
            <stop stop-color="#FF7B0A" offset="100%"></stop>
        </linearGradient>
        <linearGradient x1="0.0212567368%" y1="49.9889349%" x2="100%" y2="49.9889349%" id="linearGradient-16">
            <stop stop-color="#FF9900" offset="0%"></stop>
            <stop stop-color="#FF7B0A" offset="100%"></stop>
        </linearGradient>
        <linearGradient x1="-0.0195229157%" y1="50.0241207%" x2="100.006846%" y2="50.0241207%" id="linearGradient-17">
            <stop stop-color="#FF9900" offset="0%"></stop>
            <stop stop-color="#FF7B0A" offset="100%"></stop>
        </linearGradient>
        <linearGradient x1="-0.0027510662%" y1="50.0317765%" x2="100%" y2="50.0317765%" id="linearGradient-18">
            <stop stop-color="#FF9900" offset="0%"></stop>
            <stop stop-color="#FF7B0A" offset="100%"></stop>
        </linearGradient>
        <linearGradient x1="-0.00702780753%" y1="50.0387179%" x2="100%" y2="50.0387179%" id="linearGradient-19">
            <stop stop-color="#FBA000" offset="0%"></stop>
            <stop stop-color="#FC5507" offset="100%"></stop>
        </linearGradient>
    </defs>
    <g id="Page-1" stroke="none" stroke-width="1" fill="none" fill-rule="evenodd">
        <g id="Desktop-HD-Copy-4" transform="translate(-975.000000, -471.000000)" fill-rule="nonzero">
            <g id="Planet-orange2" transform="translate(975.000000, 471.000000)">
                <path d="M465,80.3393686 L465,339.077691 L201.439276,339.077691 C201.439276,339.723467 201.356737,340.369242 201.274198,341 C199.90856,340.369242 198.542921,339.730976 197.19229,339.077691 L8.25395417,339.077691 C2.75370126,317.227832 -0.0187254089,294.7799 0,272.247408 C0,271.496506 0,270.745603 0,270.047265 C0.276517264,227.025772 10.7861706,184.688579 30.6594296,146.538894 C76.040647,59.4342553 167.103222,0 272.03228,0 C327.717031,-0.0901358076 382.07543,17.0034118 427.700061,48.9516626 C430.636434,51.0041282 433.530287,53.114163 436.38162,55.281767 C446.493807,62.955614 456.056652,71.3286237 465,80.3393686 L465,80.3393686 Z" id="Path" fill="#153651" opacity="0.7"></path>
                <path d="M465,138.56064 L465,339.082422 L201.26914,339.082422 C201.26914,339.726608 201.186548,340.370795 201.103956,341 C199.737436,340.370795 198.370916,339.734099 197.019412,339.082422 L43.7814585,339.082422 C41.9647766,331.000941 40.5738245,322.830043 39.6143232,314.603334 L39.6143232,314.603334 C37.1696165,293.590015 37.5028354,272.347336 40.6054256,251.420621 C40.6054256,251.420621 40.6054256,251.420621 40.6054256,251.420621 C43.8217183,229.699909 50.0507624,208.531062 59.1135131,188.522548 L59.1135131,188.522548 C63.5722029,178.699108 68.694681,169.189195 74.4455676,160.058493 C116.492338,93.1379998 190.945156,48.5093568 275.849599,48 L277.62157,48 C350.67678,48.0100957 419.70995,81.3740639 465,138.56064 Z" id="Path" fill="url(#linearGradient-1)"></path>
                <path d="M76.9517221,157 C89.6090765,162.019034 96.8014321,176.418882 96.9950151,190.071849 C97.1885982,203.724817 91.7161538,216.862437 85.4321496,229.014175 C82.0891189,235.482157 78.4110406,241.920263 73.1545158,246.939297 C67.897991,251.958331 60.802427,255.483605 53.557953,254.945851 C50.2074768,254.699381 46.7229816,253.452091 44.7648144,250.711041 C42.3524716,247.320206 42.8811022,242.719424 43.6256525,238.626522 C48.9560973,209.389342 60.3064246,181.588652 76.9517221,157 L76.9517221,157 Z" id="Path" fill="url(#linearGradient-2)"></path>
                <path d="M127.559187,243.316647 C123.229527,240.88337 118.125577,240.341083 113.400875,241.812348 C108.715409,243.309305 104.542777,246.142561 101.371079,249.980689 C98.1121506,253.62987 95.9597593,258.171934 95.1763588,263.053043 C94.5157843,267.919449 95.7048184,273.139365 98.846217,276.832418 C103.984018,282.849612 113.621066,283.49646 120.336907,279.374682 C127.052747,275.252904 130.950136,267.340294 131.816223,259.35999 C132.212568,255.772238 132.036414,252.026535 130.60517,248.732121 C129.173925,245.437707 126.333455,242.647234 127.559187,243.316647 Z" id="Path" fill="url(#linearGradient-3)"></path>
                <path d="M217.942821,199.052133 C212.586183,194.772427 204.965013,194.081668 198.382066,196.048831 C191.79912,198.015994 186.134025,202.243141 181.251359,207.048425 C171.373178,216.771615 163.947615,229.775913 164,243.613627 C164.052942,257.451341 173.32173,271.634435 186.893885,274.472555 C196.802159,276.537325 207.364967,272.355227 214.459502,265.154811 C221.554037,257.954394 225.496281,248.11858 227.181516,238.125092 C229.784601,222.703136 226.037964,205.509232 217.942821,199.052133 Z" id="Path" fill="url(#linearGradient-4)"></path>
                <path d="M280.897562,150.057087 C275.445759,143.102777 265.337981,141.586309 257.030117,144.205663 C248.722252,146.825018 241.864731,152.791325 235.460908,158.857198 C232.1809,161.966724 228.677763,166.447199 230.499989,170.636634 C231.712328,173.416826 234.821269,174.688209 237.699643,175.438784 C248.315047,178.152541 259.494025,177.312849 269.614635,173.041539 C274.516051,170.965968 279.28359,167.848783 281.738018,162.993021 C284.192445,158.137259 282.600786,152.232223 280.897562,150.057087 Z" id="Path" fill="url(#linearGradient-5)"></path>
                <path d="M276.97152,218.951976 C273.36081,215.922612 268.590105,214.535056 263.859502,215.138354 C259.128899,215.741652 254.888663,218.278382 252.205447,222.110416 C250.004858,225.254166 249.067151,229.639257 251.207242,232.819733 C252.908728,235.346485 256.122646,236.492338 259.208007,236.874289 C266.167444,237.613233 273.069393,235.064425 277.765547,230.021207 C279.746833,227.817644 281.304638,225.0485 280.949216,222.169178 C280.593795,219.289855 277.674801,216.64558 276.97152,218.951976 Z" id="Path" fill="url(#linearGradient-6)"></path>
                <path d="M270.511735,272.916569 C267.800078,269.229177 263.041605,267.613606 258.477356,267.25459 C253.913107,266.895575 249.348858,267.56125 244.777139,267.426619 C240.795559,267.306947 236.77663,266.581436 232.869752,267.344344 C226.38568,268.6009 221.096828,274.120768 219.535571,280.545655 C217.974314,286.970543 219.924018,294.008749 224.11476,299.124724 C228.305503,304.2407 234.572942,307.464362 241.049544,308.578807 C251.328442,310.343968 262.71292,306.514466 268.756254,297.965402 C274.799589,289.416338 273.440026,276.895661 270.511735,272.916569 Z" id="Path" fill="url(#linearGradient-7)"></path>
                <path d="M207.314727,102.441 C193.331185,88.7630721 169.641419,89.2741156 153.063069,99.6152306 C136.484719,109.956346 126.060624,127.970628 119.480133,146.428316 C117.341474,152.3955 115.516883,158.670813 116.11511,164.983703 C116.713336,171.296593 120.235394,177.677121 126.098013,180.014394 C133.501065,182.945378 141.6519,178.804423 148.411859,174.59583 C164.733709,164.430063 180.328136,153.129474 195.080997,140.776776 C201.250207,135.613734 207.531584,129.894556 210.036657,122.23642 C212.54173,114.578283 209.632855,104.710635 207.314727,102.441 Z" id="Path" fill="url(#linearGradient-8)"></path>
                <path d="M352.198474,240.26658 C346.759688,234.078033 341.208375,227.791613 334.149205,223.560513 C327.090036,219.329414 318.170426,217.424667 310.571129,220.549055 C301.861569,224.147748 296.842882,233.392926 294.149746,242.449888 C286.985551,266.586728 292.251797,294.088874 307.817978,313.844042 C309.873464,316.448954 312.206516,319.008694 315.319752,320.228335 C319.468233,321.877108 324.321881,320.732754 328.072768,318.225715 C331.823655,315.718675 334.494287,312.02211 336.879851,308.242729 C350.045465,287.305563 355.124166,261.29409 352.198474,240.26658 Z" id="Path" fill="url(#linearGradient-9)"></path>
                <path d="M201.977081,338.079769 C201.977081,338.724846 201.894749,339.369924 201.812417,340 C200.4502,339.369924 199.087983,338.732347 197.740736,338.079769 L138.888476,338.079769 C135.86656,334.737345 133.572432,330.800789 132.152239,326.520877 C131.712375,325.133661 131.394313,323.710578 131.201681,322.267865 C130.049036,313.664329 133.933599,304.978284 140.385418,299.172585 C143.403337,296.4116 146.998789,294.361397 150.908917,293.171862 C163.123961,289.548926 177.060487,294.612036 185.18888,304.423217 C186.064591,305.480844 187.164843,306.718493 188.392336,308.128663 C191.932602,312.209154 196.47582,317.684813 199.30504,324.158093 C201.245913,328.532941 202.160014,333.295524 201.977081,338.079769 L201.977081,338.079769 Z" id="Path" fill="url(#linearGradient-10)"></path>
                <path d="M312.693421,118.590344 C313.935376,115.551943 311.216706,112.079485 307.907349,111.26201 C304.597992,110.444536 301.09174,111.659896 298.153456,113.25144 C294.920518,114.987073 291.996361,117.201778 289.49006,119.812939 C287.271201,122.120677 285.287101,125.238656 286.248859,128.240885 C287.430232,131.915904 292.261741,133.181904 296.28295,132.979344 C300.705523,132.755081 305.196251,131.395035 308.452598,128.515788 C311.708944,125.636541 313.496148,121.07894 312.693421,118.590344 Z" id="Path" fill="url(#linearGradient-11)"></path>
                <path d="M309.002042,66.8078139 C292.311214,54.9398652 270.945921,51.8037623 251.553089,58.3751737 C244.424441,60.8584512 236.965972,65.7424803 236.08145,73.2448293 C235.474278,78.3764359 238.330235,83.4855356 242.363056,86.6665315 C246.395876,89.8475274 251.553089,91.3554996 256.65783,92.1432462 C264.723471,93.3961385 272.946527,93.0135187 281.094624,92.6233966 C286.491707,92.3683167 291.96375,92.0982321 297.098475,90.417706 C302.2332,88.7371798 307.075583,85.4286439 309.399327,80.5521171 C311.723071,75.6755903 311.453217,68.5858706 309.002042,66.8078139 Z" id="Path" fill="url(#linearGradient-12)"></path>
                <path d="M382.419069,150.524867 C376.668267,142.084873 369.045459,134.688694 359.707894,130.49852 C350.370328,126.308345 339.213173,125.607498 329.920535,129.902053 C320.627898,134.196609 313.72394,143.874271 314.008485,154.073841 C314.195686,160.66479 317.168431,166.84567 320.463161,172.564288 C325.569994,181.436721 331.695197,189.899083 339.782263,196.229079 C347.869328,202.559075 358.045552,206.6225 368.296657,205.921653 C378.547761,205.220805 388.649105,199.248689 392.804958,189.891627 C395.852584,183.024812 395.530599,174.979976 393.044575,167.889486 C390.558551,160.798995 385.481671,155.028186 382.419069,150.524867 Z" id="Path" fill="url(#linearGradient-13)"></path>
                <path d="M401.504211,93.6575524 C395.835243,91.0773667 389.622622,89.8307965 383.367711,90.018441 C379.943755,90.1276144 376.415137,90.7462633 373.551873,92.5367061 C370.688609,94.3271489 368.595361,97.6314621 369.066341,100.950332 C369.516221,103.41394 370.934919,105.609741 373.021085,107.071317 C375.097037,108.51385 377.3593,109.683595 379.749382,110.550308 C384.234914,112.413533 388.959674,114.313149 393.833952,113.956516 C397.018493,113.702387 400.055547,112.540443 402.565786,110.615812 C405.070208,108.708917 407.051318,105.877688 406.998987,102.784444 C406.81209,98.4611795 403.447941,94.5382174 401.504211,93.6575524 Z" id="Path" fill="url(#linearGradient-14)"></path>
                <path d="M399.927538,252.320406 C402.119983,247.973553 399.010837,242.283402 394.381494,240.638239 C389.752151,238.993076 384.45056,240.698612 380.63097,243.807819 C376.81138,246.917026 374.328647,251.248786 372.044532,255.550359 C369.951397,259.474601 367.942292,264.093132 369.630551,268.206039 C370.85282,271.224687 373.816822,273.179261 376.918329,274.175415 C383.655632,276.225693 390.987875,274.384989 395.916969,269.405952 C400.699095,264.440276 402.272766,256.750271 399.927538,252.320406 Z" id="Path" fill="url(#linearGradient-15)"></path>
                <path d="M414,339 L359.642625,339 C356.694974,331.46361 357.760929,322.919031 362.466189,316.36664 C367.94613,309.222237 376.885718,305.765695 385.658669,307.399138 C394.374118,309.271533 401.432985,315.741673 404.155275,324.353081 C404.698849,324.743972 407.469565,328.836832 410.247831,332.922027 C411.60435,334.878687 412.85686,336.907573 414,339 L414,339 Z" id="Path" fill="url(#linearGradient-16)"></path>
                <path d="M446.440255,309.255439 C445.466099,304.783281 439.925098,302.072883 435.366046,303.292562 C430.806995,304.512242 427.572796,308.886524 427.066235,313.433971 C426.614226,317.311347 428.484606,321.888909 432.404611,322.830019 C435.631017,323.582908 438.841836,321.700687 441.514921,319.818465 C443.3633,318.635343 444.974036,317.13792 446.268804,315.39901 C447.453378,313.561962 446.962403,311.67974 446.440255,309.255439 Z" id="Path" fill="url(#linearGradient-17)"></path>
                <path d="M465,239.774356 L465,250.692023 C462.194067,253.857769 457.497506,256.411521 453.438657,257.378622 C452.763433,257.544842 452.073203,257.673286 451.390476,257.771507 C444.900819,258.693275 438.156078,256.743962 432.44668,253.40444 C429.100568,251.447571 425.874495,248.833375 424.531549,245.176524 C423.188603,241.519672 424.411509,236.706832 427.960189,235.165514 C429.389699,234.644668 430.904846,234.40361 432.424172,234.455299 L443.925495,234.100192 C445.065874,234.100192 446.176243,234.032192 447.354135,234.024637 C450.589869,233.902788 453.826754,234.23334 456.972332,235.006849 C460.045636,235.790809 462.831489,237.445283 465,239.774356 L465,239.774356 Z" id="Path" fill="url(#linearGradient-18)"></path>
                <path d="M465,154.918931 C464.932752,154.806213 464.872977,154.693495 464.805729,154.588292 C459.754686,146.187054 454.434652,137.49275 446.230442,132.179982 C438.026232,126.867213 426.056156,126.055644 419.196898,133.051666 C414.937883,137.402576 413.450963,143.962755 414.175743,150.026976 C414.638688,153.502874 415.623761,156.887925 417.097278,160.06638 L417.097278,160.06638 C418.170887,162.437822 419.391208,164.739272 420.751066,166.957199 C421.812084,168.708083 422.925405,170.428909 424.098503,172.104648 L424.098503,172.104648 C428.985447,179.109688 434.780032,185.42755 441.328838,190.890958 C446.977638,195.602564 454.494427,199.840756 461.338741,197.1731 C462.675686,196.645952 463.908055,195.882468 464.977584,194.918742 L465,154.918931 Z" id="Path" fill="url(#linearGradient-19)"></path>
                <path d="M309.862951,100.455815 C297.720443,76.5923972 268.120272,65.6874747 241.514555,68.4080842 C214.908837,71.1286937 190.766058,84.8966268 168.5547,99.811263 C141.604621,117.903691 115.784947,138.506875 96.7626826,164.8061 C76.8342295,192.473755 65.1953001,225.254881 63.2098335,259.307933 C62.4612202,273.14332 63.4493898,287.690711 70.5836747,299.562462 C76.8570544,310.055171 87.39753,317.422551 98.7839386,321.777025 C120.299086,330.021297 144.823658,327.93025 166.263944,319.528588 C187.704229,311.126926 206.352187,296.759409 222.919,280.743039 C247.623239,256.887116 268.112786,229.156385 288.519985,201.56056 C297.885138,188.909351 307.377555,176.003319 312.550473,161.126157 C319.939286,139.855937 317.491321,115.445399 309.862951,100.455815 Z" id="Path" fill="#FFE739" opacity="0.4"></path>
                <path d="M465,136.467126 L465,338 L447.349366,338 C453.288934,311.368274 454.652184,283.92409 451.381008,256.837229 C447.785139,226.851042 438.465418,197.828999 423.9253,171.338888 L423.9253,171.338888 C421.703017,167.265399 419.358108,163.271782 416.890573,159.358038 L416.890573,159.358038 C391.323908,118.581025 354.046075,86.4208862 309.905656,67.0605642 L309.905656,67.0605642 C297.678841,61.681597 285.01517,57.350362 272.051766,54.1137581 L272.051766,54.1137581 C263.467157,51.9733097 254.769794,50.3108937 246,49.1342173 C255.896423,47.8080755 265.865781,47.0953445 275.850668,47 L278.193075,47 C350.865938,46.9249677 419.620022,79.8531984 465,136.467126 L465,136.467126 Z" id="Path" fill="#000000" opacity="0.2"></path>
            </g>
        </g>
    </g>
</svg>