<?xml version="1.0" encoding="UTF-8"?>
<svg width="196px" height="158px" viewBox="0 0 196 158" version="1.1" xmlns="http://www.w3.org/2000/svg" xmlns:xlink="http://www.w3.org/1999/xlink">
    <title>Planet-ring</title>
    <defs>
        <linearGradient x1="-1.26868472e-13%" y1="50%" x2="100%" y2="50%" id="linearGradient-1">
            <stop stop-color="#00BDEE" offset="0%"></stop>
            <stop stop-color="#0081CB" offset="81%"></stop>
        </linearGradient>
        <linearGradient x1="0.056940547%" y1="49.999012%" x2="100.029523%" y2="49.999012%" id="linearGradient-2">
            <stop stop-color="#00AFE2" offset="0%"></stop>
            <stop stop-color="#0075C3" offset="81%"></stop>
        </linearGradient>
        <linearGradient x1="19.930185%" y1="67.4206735%" x2="89.8293702%" y2="19.9402662%" id="linearGradient-3">
            <stop stop-color="#00B5E9" offset="0%"></stop>
            <stop stop-color="#0075C3" offset="100%"></stop>
        </linearGradient>
    </defs>
    <g id="Page-1" stroke="none" stroke-width="1" fill="none" fill-rule="evenodd">
        <g id="Desktop-HD-Copy-4" transform="translate(-799.000000, -61.000000)">
            <g id="Planet-ring" transform="translate(799.000000, 61.000000)">
                <circle id="Oval" fill="#153651" fill-rule="nonzero" opacity="0.7" cx="99" cy="79" r="79"></circle>
                <path d="M145.908042,130.535229 C158.981688,137.775263 167.614659,141.33901 168.849016,139.53838 C171.400522,135.854591 141.30931,110.690783 101.629252,83.328706 C61.9491933,55.9666288 27.7108426,36.7749114 25.1518101,40.4511982 C22.5927775,44.127485 52.6915166,69.2987953 92.3715748,96.6608725 C112.858889,110.788317 131.893575,122.732498 145.862882,130.482711 L146.156419,130.205113 L145.908042,130.535229 Z" id="Path"></path>
                <circle id="Oval" fill="url(#linearGradient-1)" fill-rule="nonzero" cx="98" cy="79" r="67"></circle>
                <path d="M167,79.6770114 C167.004066,107.569499 149.719504,132.574842 123.541616,142.547669 C97.3637283,152.520496 67.7165325,145.394453 49,124.630736 C78.1038749,138.548279 113.035192,130.061846 132.419035,104.364393 C151.802878,78.6669405 150.236468,42.9210141 128.67831,19 C152.107717,30.2185461 167.003857,53.8044917 167,79.6770114 Z" id="Path" fill="#000000" fill-rule="nonzero" opacity="0.2"></path>
                <path d="M121.560833,24.0966313 C118.73866,23.4913712 116.027889,25.8227435 114.87674,28.4828992 C113.72559,31.1430548 113.636469,34.1319937 112.96806,36.9490687 C111.482706,43.1884787 107.227166,48.3742877 102.615142,52.7904449 C98.0031172,57.2066022 92.8786456,61.1520016 88.9053233,66.1659466 C84.9320011,71.1798917 82.1469622,77.6135827 83.2386975,83.9277162 C83.9813745,88.2691499 87.1600323,92.5806943 91.5269733,92.9692564 C93.5173478,93.1485927 95.485442,92.5134432 97.3718417,91.8409319 C107.204886,88.3438734 116.822554,83.6213499 124.368152,76.4030624 C131.913751,69.1847749 137.209039,59.074689 136.993662,48.5835134 C136.778286,38.0923378 130.680907,26.0394416 121.560833,24.0966313 Z" id="Path" fill="url(#linearGradient-2)" fill-rule="nonzero"></path>
                <path d="M83.8327554,24 C61.6828569,24.3163185 43.1292841,41.1047831 40.2914656,63.3989561 C39.6685997,68.305014 39.9058819,73.5496802 42.3751002,77.8236694 C44.8443184,82.0976585 50.005207,85.0247391 54.6915311,83.6627813 C58.3100852,82.6018086 60.9053596,79.3135458 62.4551092,75.8296427 C64.0048587,72.3457396 64.7463657,68.5458021 66.1107386,64.9791281 C68.5895643,58.5685211 73.0015431,53.1169125 78.7163572,49.4031466 C81.6304796,47.5219894 84.8412048,46.1148839 87.6144409,44.0305617 C90.387677,41.9462395 92.7604994,38.9288634 92.9829515,35.4299111 C93.2647241,31.0806756 90.0169236,27.0549993 85.9682955,25.4974011 C81.9196674,23.939803 77.3668145,24.4514777 83.8327554,24 Z" id="Path" fill="url(#linearGradient-3)" fill-rule="nonzero"></path>
                <path d="M45.7119314,57.5818215 C39.0087012,59.4826195 34.7416336,66.4622295 34.106113,73.359196 C33.4705923,80.2561626 35.7857034,87.0704858 38.4866663,93.4565659 C41.7626242,101.202505 45.7346285,108.783158 51.5072748,114.921308 C57.5811447,121.358801 65.3791977,125.940932 73.9850365,128.129225 C77.4804004,129.015763 81.2556959,129.481571 84.6451396,128.256946 C87.6164353,127.070116 90.1071077,124.937664 91.7266559,122.193927 C94.9042594,117.130141 95.6078716,110.796652 94.5259733,104.913945 C93.4440749,99.0312382 90.743112,93.5993136 87.444457,88.595632 C82.5796974,81.1502138 76.5195536,74.5537687 70.4896727,68.0024017 C67.7206183,64.9971875 64.8986037,61.9393821 61.3502799,59.8883234 C56.2888115,56.9732657 49.9260388,56.3872489 45.7119314,57.5818215 Z" id="Path" fill="#00BDE9" fill-rule="nonzero" opacity="0.4"></path>
                <path d="M195.516114,150.584163 C200.848136,142.929563 161.50382,106.680361 107.650396,69.6320942 C53.7969718,32.5838271 5.80126218,8.76121635 0.476749878,16.4382207 C-2.52720629,20.7920082 8.85778758,34.361188 29.1720412,52.1198615 C17.2913945,41.4930355 10.885458,33.8384348 12.5676734,31.4188342 C16.164911,26.2510453 55.4641675,47.1014307 100.343273,77.966274 C145.222378,108.831117 178.701469,138.06049 175.104232,143.228279 C173.204229,145.954063 161.210934,141.204477 143.848068,131.794919 L143.442534,132.011488 C171.446915,147.582066 192.166703,155.408429 195.516114,150.584163 Z" id="Path" fill="#FAA307" fill-rule="nonzero"></path>
                <path d="M100.482341,77.6136992 C55.8880248,46.554793 16.838149,25.6110576 13.2637384,30.7850389 C11.5921977,33.2180866 17.9574842,40.9152285 29.76274,51.6011143 C31.9267882,53.516013 34.4714103,55.5660811 36.8294766,57.5635832 L37.7846426,55.4459305 C28.904583,47.5835817 24.0615924,42.1392618 25.0988431,40.5697958 C27.636003,36.8901865 61.5817101,56.0992489 100.922613,83.4860552 C140.263516,110.872862 170.097532,136.051902 167.567834,139.74653 C166.344028,141.52626 157.740071,137.718991 144.785631,130.464904 L143.554362,131.884182 C160.807049,141.353543 172.843634,145.95681 174.73158,143.215876 C178.343301,138.041895 145.08412,108.665096 100.482341,77.6136992 Z" id="Path" fill="#F9600B" fill-rule="nonzero"></path>
            </g>
        </g>
    </g>
</svg>