<?xml version="1.0" encoding="UTF-8"?>
<svg width="840px" height="810px" viewBox="0 0 840 810" version="1.1" xmlns="http://www.w3.org/2000/svg" xmlns:xlink="http://www.w3.org/1999/xlink">
    <title>Path</title>
    <g id="Page-1" stroke="none" stroke-width="1" fill="none" fill-rule="evenodd">
        <g id="Desktop-HD-Copy-4" fill="#FFFFFF" fill-rule="nonzero">
            <g id="Background">
                <path d="M840,426.5475 C799.772472,431.445 762.282785,457.8825 745.44318,494.9175 C742.782639,500.876512 740.468497,506.98418 738.512314,513.21 C735.864483,521.4075 733.591699,529.86 731.258907,538.2225 C723.84048,565.0275 715.784473,591 693.086636,605.3025 C660.457557,625.86 620.050006,608.43 580.790099,599.5425 C572.430121,597.555567 563.936642,596.179435 555.376922,595.425 C541.815227,594.3825 528.63608,595.6725 516.23703,601.3575 C454.466808,629.6925 471.538942,735.36 413.369171,770.49 C356.257032,804.99 271.353919,744 219.559945,786.06 C211.451431,792.645 205.405676,800.985 200.155019,810 L0,810 L0,0 L240.39755,0 C283.03375,30.0236979 320.689657,66.5562696 351.988999,108.2625 C373.861733,137.5125 392.584073,169.2225 417.352169,196.0125 C442.120265,222.8025 474.56182,244.9725 510.971371,247.71 C537.539692,249.75 564.445556,241.5 590.923865,233.55 C626.275784,222.915 660.87761,212.775 692.936617,228.0825 C707.51844,235.035 718.979872,246.3975 728.07851,259.8 C736.389549,271.995 742.742843,285.885 747.768471,299.6925 C758.314789,328.68 765.020628,359.565 781.582698,385.5825 C794.761845,406.2075 816.514564,423.48 840,426.5475 Z" id="Path"></path>
            </g>
        </g>
    </g>
</svg>