<?xml version="1.0" encoding="UTF-8"?>
<svg width="878px" height="1024px" viewBox="0 0 878 1024" version="1.1" xmlns="http://www.w3.org/2000/svg" xmlns:xlink="http://www.w3.org/1999/xlink">
    <title>Group 3</title>
    <defs>
        <polygon id="path-1" points="0 0 878 0 878 1024 0 1024"></polygon>
    </defs>
    <g id="Page-1" stroke="none" stroke-width="1" fill="none" fill-rule="evenodd">
        <g id="Group-3">
            <mask id="mask-2" fill="white">
                <use xlink:href="#path-1"></use>
            </mask>
            <g id="Clip-2"></g>
            <path d="M878,518.07541 C807.101303,519.751209 738.688655,562.927279 706.624157,626.241009 C694.048578,651.071758 686.75022,678.489362 672.383836,702.327391 C658.009802,726.170524 633.628681,746.942777 605.830837,745.857335 C579.217796,744.813576 555.078055,724.129792 528.718294,727.921181 C500.071369,732.04773 483.589507,762.588105 475.752293,790.47187 C467.907429,818.355635 462.779795,849.572284 440.891522,868.525827 C404.715907,899.853913 349.869858,878.721831 302.099485,876.12817 C226.965582,872.050109 157.969881,919.241292 107.762755,975.331222 C93.6003543,991.150936 80.3363307,1007.88936 66.4773553,1024 L0,1024 L0,0 L295.632359,0 C342.262125,29.0508701 381.568886,69.9726925 407.928646,118.238258 C431.187009,160.829925 447.153813,211.552194 488.270927,237.29485 C557.210532,280.464114 664.421682,232.292972 720.383691,291.343198 C750.984607,323.627424 750.364158,373.554328 765.568574,415.371894 C783.61261,464.989157 826.98629,504.614575 878,518.07541" id="Fill-1" fill="#FFFFFF" mask="url(#mask-2)"></path>
        </g>
    </g>
</svg>